<?xml version="1.0" standalone="no"?>
<!DOCTYPE svg PUBLIC "-//W3C//DTD SVG 1.1//EN" "http://www.w3.org/Graphics/SVG/1.1/DTD/svg11.dtd" >
<svg>
<metadata>
Created by FontForge 20090622 at Fri May 20 09:13:05 2016
 By deploy user
Copyright (c) 2002, 2006 Parachute&#194;&#168;, www.parachute.gr.  All rights reserved.
</metadata>
<defs>
<font id="PFOnlineTwoPro-Double" horiz-adv-x="606" >
  <font-face 
    font-family="PF Online Two Pro Double"
    font-weight="400"
    font-stretch="normal"
    units-per-em="1000"
    panose-1="2 0 5 6 4 0 0 2 0 4"
    ascent="750"
    descent="-250"
    x-height="592"
    cap-height="724"
    bbox="-153 -320 1376 1045"
    underline-thickness="110"
    underline-position="-11"
    unicode-range="U+0020-U+F6D4"
  />
<missing-glyph 
d="M72 0v724h462v-724h-462zM301 439l84 162h-168zM218 122h166l-83 161zM410 236v246l-68 -121zM195 479v-242l65 124z" />
    <glyph glyph-name=".notdef" 
d="M72 0v724h462v-724h-462zM301 439l84 162h-168zM218 122h166l-83 161zM410 236v246l-68 -121zM195 479v-242l65 124z" />
    <glyph glyph-name="quotedbl" unicode="&#x22;" horiz-adv-x="472" 
d="M72 460v264h133v-264h-133zM267 460v264h133v-264h-133z" />
    <glyph glyph-name="numbersign" unicode="#" horiz-adv-x="671" 
d="M533 0h-127v134h-142v-134h-125v134h-67v124h67v143h-67v124h67v133h125v-133h142v133h127v-133h66v-124h-66v-143h66v-124h-66v-134zM264 401v-143h142v143h-142z" />
    <glyph glyph-name="dollar" unicode="$" 
d="M72 132h328v132h-328v396h165v132h131v-132h166v-132h-329v-133h329v-395h-166v-132h-131v132h-165v132z" />
    <glyph glyph-name="percent" unicode="%" horiz-adv-x="1064" 
d="M468 -66v855h131v-855h-131zM671 323h321v-323h-321v323zM72 724h321v-323h-321v323zM795 199v-75h75v75h-75zM196 599v-75h75v75h-75z" />
    <glyph glyph-name="ampersand" unicode="&#x26;" horiz-adv-x="650" 
d="M533 327v-459h-133v132h-328v724h461v-133h-329v-133h396v-131h-67zM400 327h-196v-195h196v195z" />
    <glyph glyph-name="quotesingle" unicode="'" horiz-adv-x="277" 
d="M72 460v264h133v-264h-133z" />
    <glyph glyph-name="parenleft" unicode="(" horiz-adv-x="408" 
d="M205 -198l-133 132v724l133 132h131v-133h-66l-65 -66v-591l65 -66h66v-132h-131z" />
    <glyph glyph-name="parenright" unicode=")" horiz-adv-x="408" 
d="M72 -198v132h66l65 66v591l-65 66h-66v133h131l133 -132v-724l-133 -132h-131z" />
    <glyph glyph-name="asterisk" unicode="*" horiz-adv-x="472" 
d="M270 658v66h130v-133h-64v-64h64v-132h-130v63h-65v-63h-133v132h66v64h-66v133h133v-66h65z" />
    <glyph glyph-name="plus" unicode="+" 
d="M365 264v-177h-130v177h-163v131h163v164h130v-164h169v-131h-169z" />
    <glyph glyph-name="comma" unicode="," horiz-adv-x="277" 
d="M72 -132v264h133v-264h-133z" />
    <glyph glyph-name="hyphen" unicode="-" horiz-adv-x="472" 
d="M72 264v131h328v-131h-328z" />
    <glyph glyph-name="period" unicode="." horiz-adv-x="277" 
d="M72 0v132h133v-132h-133z" />
    <glyph glyph-name="slash" unicode="/" horiz-adv-x="562" 
d="M185 -64h-135l326 852h136z" />
    <glyph glyph-name="zero" unicode="0" 
d="M72 0v724h462v-724h-462zM400 591h-195v-459h195v459z" />
    <glyph glyph-name="one" unicode="1" horiz-adv-x="540" 
d="M72 0v132h132v459h-132v133h262v-592h134v-132h-396z" />
    <glyph glyph-name="two" unicode="2" 
d="M72 0v459h329v133h-329v132h462v-396h-328v-196h328v-132h-462z" />
    <glyph glyph-name="three" unicode="3" 
d="M72 0v132h330v195h-320v132h320v132h-330v133h462v-724h-462z" />
    <glyph glyph-name="four" unicode="4" 
d="M399 0v264h-327v460h133v-329h194v329h135v-724h-135z" />
    <glyph glyph-name="five" unicode="5" 
d="M72 0v132h328v196h-328v396h462v-132h-329v-133h329v-459h-462z" />
    <glyph glyph-name="six" unicode="6" 
d="M72 0v724h462v-133h-330v-132h330v-459h-462zM400 327h-196v-195h196v195z" />
    <glyph glyph-name="seven" unicode="7" 
d="M370 591h-328v133h462v-724h-134v591z" />
    <glyph glyph-name="eight" unicode="8" 
d="M400 591h-196v-132h196v132zM204 327v-195h196v195h-196zM534 0h-462v724h462v-724z" />
    <glyph glyph-name="nine" unicode="9" 
d="M534 724v-724h-462v133h330v131h-330v460h462zM204 396h196v196h-196v-196z" />
    <glyph glyph-name="colon" unicode=":" horiz-adv-x="277" 
d="M72 0v132h133v-132h-133zM72 395v132h133v-132h-133z" />
    <glyph glyph-name="semicolon" unicode=";" horiz-adv-x="277" 
d="M72 395v132h133v-132h-133zM72 -132v264h133v-264h-133z" />
    <glyph glyph-name="less" unicode="&#x3c;" horiz-adv-x="562" 
d="M72 393l418 244v-143l-268 -157l268 -157v-144l-418 245v112z" />
    <glyph glyph-name="equal" unicode="=" horiz-adv-x="622" 
d="M72 367v124h478v-124h-478zM72 164v123h478v-123h-478z" />
    <glyph glyph-name="greater" unicode="&#x3e;" horiz-adv-x="562" 
d="M490 281l-418 -245v144l268 157l-268 157v143l418 -244v-112z" />
    <glyph glyph-name="question" unicode="?" horiz-adv-x="634" 
d="M336 327v-128h-132v260h196v132h-328v133h462v-397h-198zM204 0v133h132v-133h-132z" />
    <glyph glyph-name="at" unicode="@" horiz-adv-x="803" 
d="M731 724v-654h-455v449h339v89h-429v-626h476v-115h-590v857h659zM390 405v-220h225v220h-225z" />
    <glyph glyph-name="A" unicode="A" 
d="M400 0v264h-195v-264h-133v724h462v-724h-134zM400 592h-195v-196h195v196z" />
    <glyph glyph-name="B" unicode="B" 
d="M72 0v724h462v-271l-68 -62l68 -70v-321h-462zM400 591h-195v-143h195v143zM400 320h-195v-188h195v188z" />
    <glyph glyph-name="C" unicode="C" horiz-adv-x="584" 
d="M72 0v724h462v-133h-330v-459h330v-132h-462z" />
    <glyph glyph-name="D" unicode="D" horiz-adv-x="650" 
d="M409 0h-337v724h337l191 -349v-29zM322 591h-118v-459h122l127 226z" />
    <glyph glyph-name="E" unicode="E" 
d="M72 0v724h462v-133h-330v-143h317v-129h-317v-187h332v-132h-464z" />
    <glyph glyph-name="F" unicode="F" horiz-adv-x="584" 
d="M534 724v-133h-330v-143h324v-127h-324v-321h-132v724h462z" />
    <glyph glyph-name="G" unicode="G" 
d="M72 0v724h462v-133h-331v-459h197v185h-103v131h237v-448h-462z" />
    <glyph glyph-name="H" unicode="H" 
d="M400 0v322h-196v-322h-132v724h132v-276h196v276h134v-724h-134z" />
    <glyph glyph-name="I" unicode="I" horiz-adv-x="276" 
d="M72 0v724h132v-724h-132z" />
    <glyph glyph-name="J" unicode="J" horiz-adv-x="534" 
d="M0 0v264h132v-134h196v594h134v-724h-462z" />
    <glyph glyph-name="K" unicode="K" 
d="M366 448h170v-448h-134v317h-195v-317h-133v724h133v-276l179 276h159z" />
    <glyph glyph-name="L" unicode="L" horiz-adv-x="540" 
d="M72 0v724h133v-592h329v-132h-462z" />
    <glyph glyph-name="M" unicode="M" horiz-adv-x="738" 
d="M204 431v-431h-132v724h132l165 -341l165 341h132v-724h-132v431l-142 -291h-46z" />
    <glyph glyph-name="N" unicode="N" 
d="M407 0l-203 419v-419h-132v724h132l196 -412v412h134v-724h-127z" />
    <glyph glyph-name="O" unicode="O" 
d="M72 0v724h462v-724h-462zM400 591h-195v-459h195v459z" />
    <glyph glyph-name="P" unicode="P" horiz-adv-x="584" 
d="M205 316v-316h-133v724h462v-408h-329zM400 591h-195v-143h195v143z" />
    <glyph glyph-name="Q" unicode="Q" 
d="M400 591h-195v-459h195v459zM468 -70v-128h-263v198h-133v724h462v-724h-196v-70h130z" />
    <glyph glyph-name="R" unicode="R" 
d="M205 397h195v194h-195v-194zM385 0l-105 266h-75v-266h-133v724h462v-458h-105l106 -266h-150z" />
    <glyph glyph-name="S" unicode="S" 
d="M72 0v132h328v185h-328v407h462v-132h-329v-144h329v-448h-462z" />
    <glyph glyph-name="T" unicode="T" horiz-adv-x="522" 
d="M325 591v-591h-132v591h-163v133h462v-133h-167z" />
    <glyph glyph-name="U" unicode="U" 
d="M72 0v724h132v-592h196v592h134v-724h-462z" />
    <glyph glyph-name="V" unicode="V" horiz-adv-x="584" 
d="M533 328l-328 -328h-133v724h133v-538l194 195v343h134v-396z" />
    <glyph glyph-name="W" unicode="W" horiz-adv-x="738" 
d="M534 0l-164 285l-166 -285h-132v724h132v-459l143 249h44l143 -249v459h132v-724h-132z" />
    <glyph glyph-name="X" unicode="X" horiz-adv-x="550" 
d="M538 0h-151l-112 226l-113 -226h-151l188 361l-188 363h150l114 -225l113 225h151l-189 -363z" />
    <glyph glyph-name="Y" unicode="Y" 
d="M72 0v132h330v131h-330v461h133v-330h197v330h132v-724h-462z" />
    <glyph glyph-name="Z" unicode="Z" 
d="M72 0v132l300 459h-300v133h462v-128l-303 -464h303v-132h-462z" />
    <glyph glyph-name="bracketleft" unicode="[" horiz-adv-x="408" 
d="M72 -198v988h264v-133h-131v-723h131v-132h-264z" />
    <glyph glyph-name="backslash" unicode="\" horiz-adv-x="562" 
d="M377 -64l-327 852h136l326 -852h-135z" />
    <glyph glyph-name="bracketright" unicode="]" horiz-adv-x="408" 
d="M72 -198v132h131v723h-131v133h264v-988h-264z" />
    <glyph glyph-name="asciicircum" unicode="^" horiz-adv-x="605" 
d="M300 670l-97 -143h-131l178 263h101l182 -263h-135z" />
    <glyph glyph-name="underscore" unicode="_" horiz-adv-x="500" 
d="M0 -176v110h500v-110h-500z" />
    <glyph glyph-name="grave" unicode="`" horiz-adv-x="607" 
d="M266 641l-81 149h125l44 -149h-88z" />
    <glyph glyph-name="a" unicode="a" horiz-adv-x="607" 
d="M72 0v395h328v64h-325v133h460v-592h-463zM400 264h-195v-132h195v132z" />
    <glyph glyph-name="b" unicode="b" 
d="M72 0v724h133v-197h329v-527h-462zM400 395h-195v-263h195v263z" />
    <glyph glyph-name="c" unicode="c" horiz-adv-x="518" 
d="M72 0v592h396v-133h-263v-327h263v-132h-396z" />
    <glyph glyph-name="d" unicode="d" 
d="M534 0h-462v527h328v197h134v-724zM400 395h-195v-263h195v263z" />
    <glyph glyph-name="e" unicode="e" 
d="M72 0v592h462v-393h-329v-67h329v-132h-462zM400 459h-195v-132h195v132z" />
    <glyph glyph-name="f" unicode="f" horiz-adv-x="486" 
d="M446 395h-188v-395h-132v395h-66v132h66v197h320v-132h-188v-65h188v-132z" />
    <glyph glyph-name="g" unicode="g" horiz-adv-x="607" 
d="M72 198v394h463v-394h-199v-66h199v-330h-463v131h331v67h-199v198h-132zM204 459v-132h199v132h-199z" />
    <glyph glyph-name="h" unicode="h" 
d="M400 0v395h-195v-395h-133v724h133v-197h329v-527h-134z" />
    <glyph glyph-name="i" unicode="i" horiz-adv-x="277" 
d="M72 0v395h133v-395h-133zM205 592v-133h-133v133h133z" />
    <glyph glyph-name="j" unicode="j" horiz-adv-x="277" 
d="M72 395h133v-593h-270v132h137v461zM72 459v133h133v-133h-133z" />
    <glyph glyph-name="k" unicode="k" horiz-adv-x="616" 
d="M375 395h159v-395h-134v264h-195v-264h-133v724h133v-329l166 197h173z" />
    <glyph glyph-name="l" unicode="l" horiz-adv-x="277" 
d="M72 0v724h133v-724h-133z" />
    <glyph glyph-name="m" unicode="m" horiz-adv-x="802" 
d="M599 0v459h-131v-459h-132v459h-131v-459h-133v592h658v-592h-131z" />
    <glyph glyph-name="n" unicode="n" 
d="M205 0h-133v592h462v-592h-133v459h-196v-459z" />
    <glyph glyph-name="o" unicode="o" 
d="M72 592h462v-592h-462v592zM205 458v-326h198v326h-198z" />
    <glyph glyph-name="p" unicode="p" 
d="M72 592h462v-592h-330v-198h-132v790zM204 132h197v327h-197v-327z" />
    <glyph glyph-name="q" unicode="q" 
d="M402 -198v198h-330v592h462v-790h-132zM402 459h-198v-327h198v327z" />
    <glyph glyph-name="r" unicode="r" horiz-adv-x="498" 
d="M336 327v132h-131v-459h-133v592h396v-265h-132z" />
    <glyph glyph-name="s" unicode="s" 
d="M72 0v132h328v132h-328v328h462v-133h-329v-64h329v-395h-462z" />
    <glyph glyph-name="t" unicode="t" horiz-adv-x="590" 
d="M122 0v459h-68v133h68v132h133v-132h263v-133h-263v-327h132v132h131v-264h-396z" />
    <glyph glyph-name="u" unicode="u" 
d="M72 0v592h133v-460h196v460h133v-592h-462z" />
    <glyph glyph-name="v" unicode="v" horiz-adv-x="584" 
d="M533 328l-328 -328h-133v592h133v-406l194 195v211h134v-264z" />
    <glyph glyph-name="w" unicode="w" horiz-adv-x="802" 
d="M72 0v592h133v-460h131v460h132v-460h131v460h131v-592h-658z" />
    <glyph glyph-name="x" unicode="x" horiz-adv-x="579" 
d="M288 172l-107 -172h-155l185 295l-185 297h155l107 -173l108 173h155l-185 -297l185 -295h-155z" />
    <glyph glyph-name="y" unicode="y" 
d="M72 -198v132h330v66h-330v592h133v-460h197v460h132v-790h-462z" />
    <glyph glyph-name="z" unicode="z" 
d="M72 0v132l282 326h-282v134h462v-134l-282 -326h282v-132h-462z" />
    <glyph glyph-name="braceleft" unicode="{" horiz-adv-x="480" 
d="M144 -198v462h-72v131h72v395h264v-133h-131v-723h131v-132h-264z" />
    <glyph glyph-name="bar" unicode="|" horiz-adv-x="277" 
d="M72 -132v922h133v-922h-133z" />
    <glyph glyph-name="braceright" unicode="}" horiz-adv-x="480" 
d="M336 264v-462h-264v132h131v723h-131v133h264v-395h72v-131h-72z" />
    <glyph glyph-name="asciitilde" unicode="~" horiz-adv-x="672" 
d="M165 319v-87h-93v198h87l345 -101v101h96v-208h-94z" />
    <glyph glyph-name="Ccedilla" unicode="&#xc7;" horiz-adv-x="584" 
d="M289 0v-28h75v-193h-147v79h66v37h-65v105h-146v724h462v-133h-330v-459h330v-132h-245z" />
    <glyph glyph-name="dieresistonos" unicode="&#x385;" horiz-adv-x="607" 
d="M400 658v100h98v-100h-98zM106 658v100h98v-100h-98zM221 641l44 149h125l-81 -149h-88z" />
    <glyph glyph-name="tonos" unicode="&#x384;" horiz-adv-x="607" 
d="M251 641l44 149h125l-81 -149h-88z" />
    <glyph glyph-name="dieresis" unicode="&#xa8;" horiz-adv-x="669" 
d="M374 641v100h98v-100h-98zM187 641v100h98v-100h-98z" />
    <glyph glyph-name="ccedilla" unicode="&#xe7;" horiz-adv-x="518" 
d="M289 0v-28h75v-193h-147v79h66v37h-65v105h-146v592h396v-133h-263v-327h263v-132h-179z" />
    <glyph glyph-name="sterling" unicode="&#xa3;" horiz-adv-x="671" 
d="M72 0v132h66v132h-66v131h66v263h396v-131h-265v-132h265v-131h-264v-132h329v-132h-527z" />
    <glyph glyph-name="trademark" unicode="&#x2122;" horiz-adv-x="710" 
d="M402 548v-221h-79v397h79l99 -205l99 205h80v-397h-80v221l-85 -174h-27zM207 646v-317h-78v317h-99v80h277v-80h-100z" />
    <glyph glyph-name="bullet" unicode="&#x2022;" horiz-adv-x="407" 
d="M72 264v257h263v-257h-263z" />
    <glyph glyph-name="perthousand" unicode="&#x2030;" horiz-adv-x="1448" 
d="M468 -66v855h131v-855h-131zM671 323h321v-323h-321v323zM72 724h321v-323h-321v323zM795 199v-75h75v75h-75zM196 599v-75h75v75h-75zM1055 323h321v-323h-321v323zM1179 199v-75h75v75h-75z" />
    <glyph glyph-name="sfthyphen" unicode="&#xad;" horiz-adv-x="472" 
d="M72 264v131h328v-131h-328z" />
    <glyph glyph-name="dagger" unicode="&#x2020;" horiz-adv-x="540" 
d="M336 395v-395h-131v395h-133v131h133v198h131v-198h139v-131h-139z" />
    <glyph glyph-name="Gamma" unicode="&#x393;" horiz-adv-x="532" 
d="M72 0v724h462v-133h-330v-591h-132z" />
    <glyph glyph-name="Theta" unicode="&#x398;" 
d="M72 0v724h462v-724h-462zM205 328v-196h195v196h-195zM400 459v132h-195v-132h195z" />
    <glyph glyph-name="Lambda" unicode="&#x39b;" 
d="M534 556v-556h-133v496l-94 94h-7l-96 -94v-496h-132v556l179 168h104z" />
    <glyph glyph-name="Xi" unicode="&#x39e;" 
d="M72 0v132h165v195h-160v132h160v132h-165v133h462v-133h-168v-132h163v-132h-163v-195h168v-132h-462z" />
    <glyph glyph-name="Pi" unicode="&#x3a0;" 
d="M400 0v591h-195v-591h-133v724h462v-724h-134z" />
    <glyph glyph-name="germandbls" unicode="&#xdf;" horiz-adv-x="605" 
d="M400 134v210h-195v-344h-133v724h396v-265h65v-459h-254v134h121zM338 591h-133v-132h133v132z" />
    <glyph glyph-name="registered" unicode="&#xae;" 
d="M72 724h462v-592h-462v592zM154 641v-425h298v425h-298zM281 360v-100h-83v336h208v-209h-46l50 -127h-88zM281 514v-46h45v46h-45z" />
    <glyph glyph-name="copyright" unicode="&#xa9;" horiz-adv-x="649" 
d="M72 722h505v-722h-505v722zM160 634v-544h329v544h-329zM210 582h228v-90h-139v-266h139v-85h-228v441z" />
    <glyph glyph-name="Sigma" unicode="&#x3a3;" horiz-adv-x="567" 
d="M222 591l147 -230l-150 -229h303v-132h-462v132l146 229l-146 235v128h462v-133h-300z" />
    <glyph glyph-name="section" unicode="&#xa7;" 
d="M72 -132v132h327v132h-327v658h462v-132h-330v-131h330v-659h-462zM399 395h-195v-131h195v131z" />
    <glyph glyph-name="degree" unicode="&#xb0;" horiz-adv-x="471" 
d="M72 396v328h327v-328h-327zM274 597h-73v-77h73v77z" />
    <glyph glyph-name="periodcentered" unicode="&#xb7;" horiz-adv-x="319" 
d="M72 327v194h198v-194h-198z" />
    <glyph glyph-name="Alpha" unicode="&#x391;" 
d="M400 0v264h-195v-264h-133v724h462v-724h-134zM400 592h-195v-196h195v196z" />
    <glyph glyph-name="yen" unicode="&#xa5;" 
d="M534 140h-166v-140h-131v140h-165v124h165v63h-165v397h133v-265h195v265h134v-397h-166v-63h166v-124z" />
    <glyph glyph-name="Beta" unicode="&#x392;" 
d="M72 0v724h462v-271l-68 -62l68 -70v-321h-462zM400 591h-195v-143h195v143zM400 320h-195v-188h195v188z" />
    <glyph glyph-name="Epsilon" unicode="&#x395;" 
d="M72 0v724h462v-133h-330v-143h317v-129h-317v-187h332v-132h-464z" />
    <glyph glyph-name="Zeta" unicode="&#x396;" 
d="M72 0v132l300 459h-300v133h462v-128l-303 -464h303v-132h-462z" />
    <glyph glyph-name="Eta" unicode="&#x397;" 
d="M400 0v322h-196v-322h-132v724h132v-276h196v276h134v-724h-134z" />
    <glyph glyph-name="Iota" unicode="&#x399;" horiz-adv-x="276" 
d="M72 0v724h132v-724h-132z" />
    <glyph glyph-name="Kappa" unicode="&#x39a;" 
d="M366 448h170v-448h-134v317h-195v-317h-133v724h133v-276l179 276h159z" />
    <glyph glyph-name="Mu" unicode="&#x39c;" horiz-adv-x="738" 
d="M204 431v-431h-132v724h132l165 -341l165 341h132v-724h-132v431l-142 -291h-46z" />
    <glyph glyph-name="Phi" unicode="&#x3a6;" horiz-adv-x="741" 
d="M437 95v-95h-131v95h-234v563h234v66h131v-66h232v-563h-232zM205 525v-298h101v298h-101zM535 525h-98v-298h98v298z" />
    <glyph glyph-name="Psi" unicode="&#x3a8;" horiz-adv-x="739" 
d="M437 195v-195h-131v195h-234v529h133v-397h101v397h131v-397h98v397h132v-529h-230z" />
    <glyph glyph-name="Nu" unicode="&#x39d;" 
d="M407 0l-203 419v-419h-132v724h132l196 -412v412h134v-724h-127z" />
    <glyph glyph-name="Omicron" unicode="&#x39f;" 
d="M72 0v724h462v-724h-462zM400 591h-195v-459h195v459z" />
    <glyph glyph-name="Rho" unicode="&#x3a1;" horiz-adv-x="584" 
d="M205 316v-316h-133v724h462v-408h-329zM400 591h-195v-143h195v143z" />
    <glyph glyph-name="Tau" unicode="&#x3a4;" horiz-adv-x="522" 
d="M325 591v-591h-132v591h-163v133h462v-133h-167z" />
    <glyph glyph-name="guillemotleft" unicode="&#xab;" horiz-adv-x="573" 
d="M368 89l-92 163l92 157h133l-93 -156l93 -164h-133zM205 252l92 -163h-133l-92 163l92 157h133z" />
    <glyph glyph-name="guillemotright" unicode="&#xbb;" horiz-adv-x="573" 
d="M409 89h-132l92 163l-93 157h133l92 -157zM206 89h-134l93 164l-93 156h133l93 -157z" />
    <glyph glyph-name="ellipsis" unicode="&#x2026;" horiz-adv-x="801" 
d="M72 0v132h132v-132h-132zM336 0v132h131v-132h-131zM598 0v132h131v-132h-131z" />
    <glyph glyph-name="Upsilon" unicode="&#x3a5;" 
d="M368 327v-327h-131v327h-165v397h133v-265h195v265h134v-397h-166z" />
    <glyph glyph-name="Chi" unicode="&#x3a7;" horiz-adv-x="550" 
d="M538 0h-151l-112 226l-113 -226h-151l188 361l-188 363h150l114 -225l113 225h151l-189 -363z" />
    <glyph glyph-name="oe" unicode="&#x153;" horiz-adv-x="805" 
d="M336 458h-131v-326h131v326zM72 0v591l661 1v-393h-264v-67h264v-132h-661zM599 459h-130v-132h130v132z" />
    <glyph glyph-name="endash" unicode="&#x2013;" horiz-adv-x="500" 
d="M30 264v110h440v-110h-440z" />
    <glyph glyph-name="afii00208" unicode="&#x2015;" horiz-adv-x="1000" 
d="M0 264v110h1000v-110h-1000z" />
    <glyph glyph-name="quotedblleft" unicode="&#x201c;" horiz-adv-x="472" 
d="M72 460v264h133v-264h-133zM267 460v264h133v-264h-133z" />
    <glyph glyph-name="quotedblright" unicode="&#x201d;" horiz-adv-x="472" 
d="M72 460v264h133v-264h-133zM267 460v264h133v-264h-133z" />
    <glyph glyph-name="quoteleft" unicode="&#x2018;" horiz-adv-x="277" 
d="M72 460v264h133v-264h-133z" />
    <glyph glyph-name="quoteright" unicode="&#x2019;" horiz-adv-x="277" 
d="M72 460v264h133v-264h-133z" />
    <glyph glyph-name="alpha" unicode="&#x3b1;" 
d="M402 459h-198v-327h198v327zM600 132v-132h-528v592h462v-460h66z" />
    <glyph glyph-name="beta" unicode="&#x3b2;" horiz-adv-x="605" 
d="M400 327h-195v-195h195v195zM338 592h-133v-133h133v133zM205 -132h-133v856h396v-265h65v-459h-328v-132z" />
    <glyph glyph-name="psi" unicode="&#x3c8;" horiz-adv-x="782" 
d="M458 0v-198h-131v198h-255v592h133v-460h122v460h131v-460h120v460h132v-592h-252z" />
    <glyph glyph-name="delta" unicode="&#x3b4;" 
d="M400 396h-195v-264h195v264zM204 724h330v-132h-199v-65h199v-527h-462v527h132v197z" />
    <glyph glyph-name="epsilon" unicode="&#x3b5;" 
d="M72 0v592h462v-133h-329v-101h326v-131h-326v-95h329v-132h-462z" />
    <glyph glyph-name="phi" unicode="&#x3c6;" horiz-adv-x="771" 
d="M453 67v-265h-133v265h-248v525h133v-393h115v393h379v-525h-246zM567 460h-114v-261h114v261z" />
    <glyph glyph-name="gamma" unicode="&#x3b3;" horiz-adv-x="584" 
d="M534 295l-329 -328v-165h-133v790h133v-440l194 195v245h135v-297z" />
    <glyph glyph-name="eta" unicode="&#x3b7;" 
d="M534 0h-134v383l-77 76h-119v-459h-132v592h304l158 -148v-444z" />
    <glyph glyph-name="iota" unicode="&#x3b9;" horiz-adv-x="277" 
d="M72 0v592h133v-592h-133z" />
    <glyph glyph-name="xi" unicode="&#x3be;" horiz-adv-x="584" 
d="M534 -155h-134v155h-328v724h462v-132h-329v-130h324v-132h-324v-198h329v-287z" />
    <glyph glyph-name="kappa" unicode="&#x3ba;" horiz-adv-x="616" 
d="M375 395h159v-395h-134v264h-195v-264h-133v592h133v-197l166 197h173z" />
    <glyph glyph-name="lambda" unicode="&#x3bb;" 
d="M534 724v-724h-132v395h-197v-395h-133v527h330v65h-264v132h396z" />
    <glyph glyph-name="nu" unicode="&#x3bd;" horiz-adv-x="584" 
d="M533 328l-328 -328h-133v592h133v-406l194 195v211h134v-264z" />
    <glyph glyph-name="omicron" unicode="&#x3bf;" 
d="M72 592h462v-592h-462v592zM205 458v-326h198v326h-198z" />
    <glyph glyph-name="pi" unicode="&#x3c0;" 
d="M205 0h-133v592h462v-592h-133v459h-196v-459z" />
    <glyph glyph-name="rho" unicode="&#x3c1;" 
d="M72 592h462v-592h-330v-198h-132v790zM204 132h197v327h-197v-327z" />
    <glyph glyph-name="sigma" unicode="&#x3c3;" 
d="M402 459h-198v-327h198v327zM534 459v-459h-462v592h528v-133h-66z" />
    <glyph glyph-name="tau" unicode="&#x3c4;" horiz-adv-x="590" 
d="M122 0v459h-68v133h464v-133h-263v-327h132v132h131v-264h-396z" />
    <glyph glyph-name="theta" unicode="&#x3b8;" 
d="M72 0v724h462v-724h-462zM205 328v-196h195v196h-195zM400 459v133h-195v-133h195z" />
    <glyph glyph-name="omega" unicode="&#x3c9;" horiz-adv-x="802" 
d="M72 0v592h133v-460h131v393h132v-393h131v460h131v-592h-658z" />
    <glyph glyph-name="sigma1" unicode="&#x3c2;" 
d="M72 0v132h328v132h-328v328h462v-133h-329v-64h329v-395h-462z" />
    <glyph glyph-name="chi" unicode="&#x3c7;" horiz-adv-x="579" 
d="M288 172l-107 -172h-155l185 295l-185 297h155l107 -173l108 173h155l-185 -297l185 -295h-155z" />
    <glyph glyph-name="upsilon" unicode="&#x3c5;" 
d="M72 0v592h133v-460h196v460h133v-592h-462z" />
    <glyph glyph-name="zeta" unicode="&#x3b6;" 
d="M72 0v132l282 326h-282v134h462v-134l-282 -326h282v-132h-462z" />
    <glyph glyph-name="space" unicode=" " horiz-adv-x="280" 
 />
    <glyph glyph-name="Euro" unicode="&#x20ac;" horiz-adv-x="667" 
d="M133 311v38h-61v114h61v195h462v-133h-330v-62h263v-114h-263v-38h263v-114h-263v-65h330v-132h-462v197h-61v114h61z" />
    <glyph glyph-name="emdash" unicode="&#x2014;" horiz-adv-x="1000" 
d="M30 264v110h940v-110h-940z" />
    <glyph glyph-name="Omega" unicode="&#x3a9;" 
d="M73 0v132h165v63h-166v529h462v-529h-166v-63h166v-132h-461zM400 591h-195v-264h195v264z" />
    <glyph glyph-name="Delta" unicode="&#x394;" 
d="M72 556l179 168h104l179 -168v-556h-462v556zM204 496v-366h197v366l-94 94h-7z" />
    <glyph glyph-name="mu" unicode="&#xb5;" 
d="M205 -198h-133v790h133v-459h196v459h133v-592h-329v-198z" />
    <glyph glyph-name="mu" unicode="&#x3bc;" 
d="M205 -198h-133v790h133v-459h196v459h133v-592h-329v-198z" />
    <glyph glyph-name="cent" unicode="&#xa2;" horiz-adv-x="529" 
d="M206 -132v132h-134v592h134v131h133v-131h129v-133h-263v-327h263v-132h-129v-132h-133z" />
    <glyph glyph-name="AE" unicode="&#xc6;" horiz-adv-x="935" 
d="M400 0v264h-195v-264h-133v724h791v-133h-329v-132h326v-132h-326v-195h329v-132h-463zM400 591h-195v-195h195v195z" />
    <glyph glyph-name="Eth" unicode="&#xd0;" horiz-adv-x="650" 
d="M409 0h-337v294h-73v131h73v300h337l191 -350v-29zM204 294v-162h122l127 226l-131 233h-118v-166h123v-131h-123z" />
    <glyph glyph-name="Oslash" unicode="&#xd8;" 
d="M228 -132v132h-156v724h156v130h133v-130h173v-724h-173v-132h-133zM400 591h-195v-459h195v459z" />
    <glyph glyph-name="Thorn" unicode="&#xde;" horiz-adv-x="584" 
d="M71 724h137v-144h326v-397h-329v-183h-133zM400 447h-195v-132h195v132z" />
    <glyph glyph-name="ae" unicode="&#xe6;" horiz-adv-x="937" 
d="M72 0v395h328v64h-328v131h793v-391h-329v-67h329v-132h-793zM400 264h-195v-132h195v132zM731 459h-195v-132h195v132z" />
    <glyph glyph-name="tilde" unicode="&#x2dc;" horiz-adv-x="607" 
d="M219 703v-61h-73v146h71l166 -69v69h76v-149h-78z" />
    <glyph glyph-name="thorn" unicode="&#xfe;" 
d="M72 725h133v-134h329v-591h-330v-198h-132v923zM204 132h197v327h-197v-327z" />
    <glyph glyph-name="OE" unicode="&#x152;" horiz-adv-x="933" 
d="M72 0v724h789v-133h-327v-132h324v-132h-324v-195h327v-132h-789zM205 132h194v459h-194v-459z" />
    <glyph glyph-name="florin" unicode="&#x192;" horiz-adv-x="496" 
d="M0 -131v131h126v395h-66v132h66v197h320v-132h-188v-65h188v-132h-188v-526h-258z" />
    <glyph glyph-name="oslash" unicode="&#xf8;" 
d="M72 591h162v130h133v-130h167v-591h-167v-132h-133v132h-162v591zM205 458v-326h198v326h-198z" />
    <glyph glyph-name="plusminus" unicode="&#xb1;" 
d="M365 376v-177h-130v177h-163v131h163v164h130v-164h169v-131h-169zM72 -1v131h461v-131h-461z" />
    <glyph glyph-name="circumflex" unicode="&#x2c6;" horiz-adv-x="607" 
d="M301 721l-67 -80h-102l132 165h75l134 -165h-107z" />
    <glyph glyph-name="guilsinglleft" unicode="&#x2039;" horiz-adv-x="370" 
d="M72 252l93 157h133l-93 -156l93 -164h-134z" />
    <glyph glyph-name="guilsinglright" unicode="&#x203a;" horiz-adv-x="370" 
d="M206 89h-134l93 164l-93 156h133l93 -157z" />
    <glyph glyph-name="daggerdbl" unicode="&#x2021;" horiz-adv-x="540" 
d="M336 136v-136h-131v136h-133v131h133v128h-133v131h133v198h131v-198h139v-131h-139v-128h139v-131h-139z" />
    <glyph glyph-name="multiply" unicode="&#xd7;" 
d="M305 237l-125 -125l-92 92l125 125l-115 116l93 92l115 -115l116 116l92 -92l-116 -116l119 -119l-92 -93z" />
    <glyph glyph-name="eth" unicode="&#xf0;" horiz-adv-x="738" 
d="M72 0v459h330v132h-197v133h329v-133h133v-132h-133v-459h-462zM206 132h196v195h-196v-195z" />
    <glyph glyph-name="exclamdown" unicode="&#xa1;" horiz-adv-x="277" 
d="M204 398v-528h-133v528h133zM204 594v-132h-133v132h133z" />
    <glyph glyph-name="questiondown" unicode="&#xbf;" horiz-adv-x="634" 
d="M270 266v128h132v-260h-196v-132h328v-133h-462v397h198zM402 593v-133h-132v133h132z" />
    <glyph glyph-name="quotesinglbase" unicode="&#x201a;" horiz-adv-x="277" 
d="M72 -132v264h133v-264h-133z" />
    <glyph glyph-name="quotedblbase" unicode="&#x201e;" horiz-adv-x="487" 
d="M72 -132v264h133v-264h-133zM276 -131v264h133v-264h-133z" />
    <glyph glyph-name="macron" unicode="&#xaf;" horiz-adv-x="607" 
d="M146 641v110h313v-110h-313z" />
    <glyph glyph-name="logicalnot" unicode="&#xac;" horiz-adv-x="501" 
d="M361 264h-331v111h441v-276h-110v165z" />
    <glyph glyph-name="divide" unicode="&#xf7;" horiz-adv-x="512" 
d="M192 0v132h133v-132h-133zM192 475v132h133v-132h-133zM72 245v131h368v-131h-368z" />
    <glyph glyph-name="Dcroat" unicode="&#x110;" horiz-adv-x="650" 
d="M409 0h-337v294h-73v131h73v300h337l191 -350v-29zM204 294v-162h122l127 226l-131 233h-118v-166h123v-131h-123z" />
    <glyph glyph-name="Lslash" unicode="&#x141;" horiz-adv-x="540" 
d="M72 0v227l-72 -41v124l72 41v373h133v-294l145 85v-127l-145 -85v-171h329v-132h-462z" />
    <glyph glyph-name="lslash" unicode="&#x142;" horiz-adv-x="395" 
d="M129 0v247l-108 -61v124l108 63v351h133v-274l109 65v-127l-109 -64v-324h-133z" />
    <glyph glyph-name="dcroat" unicode="&#x111;" horiz-adv-x="667" 
d="M534 0h-462v527h328v197h134v-62h133v-132h-133v-530zM400 395h-195v-263h195v263z" />
    <glyph glyph-name="dotaccent" unicode="&#x2d9;" horiz-adv-x="607" 
d="M248 641v100h98v-100h-98z" />
    <glyph glyph-name="hungarumlaut" unicode="&#x2dd;" horiz-adv-x="607" 
d="M173 641l44 149h125l-81 -149h-88zM329 641l44 149h125l-81 -149h-88z" />
    <glyph glyph-name="acute" unicode="&#xb4;" horiz-adv-x="607" 
d="M251 641l44 149h125l-81 -149h-88z" />
    <glyph glyph-name="Uogonek" unicode="&#x172;" 
d="M250 -197v197h-178v724h132v-592h196v592h134v-724h-182v-100h83v-97h-185z" />
    <glyph glyph-name="uogonek" unicode="&#x173;" 
d="M250 -197v197h-178v592h133v-460h196v460h133v-592h-182v-100h83v-97h-185z" />
    <glyph glyph-name="cedilla" unicode="&#xb8;" horiz-adv-x="607" 
d="M289 10v-38h75v-193h-147v79h66v37h-65v115h71z" />
    <glyph glyph-name="brokenbar" unicode="&#xa6;" horiz-adv-x="277" 
d="M72 399v391h133v-391h-133zM72 -129v391h133v-391h-133z" />
    <glyph glyph-name="currency" unicode="&#xa4;" horiz-adv-x="679" 
d="M71 440v133h134v-133h268v-274h-268v274h-134zM473 33v133h135v-133h-135zM473 440v133h135v-133h-135zM71 33v133h134v-133h-134z" />
    <glyph glyph-name="caron" unicode="&#x2c7;" horiz-adv-x="607" 
d="M303 725l67 80h102l-132 -165h-75l-134 165h107z" />
    <glyph glyph-name="breve" unicode="&#x2d8;" horiz-adv-x="607" 
d="M171 627v175h84v-93h101v93h86v-175h-271z" />
    <glyph glyph-name="paragraph" unicode="&#xb6;" horiz-adv-x="593" 
d="M161 -131v130h135v233h-134v131h-132v264h132v134h371v-134h-105v-758h-267z" />
    <glyph glyph-name="onequarter" unicode="&#xbc;" horiz-adv-x="1123" 
d="M441 -64h-135l326 852h136zM913 0v193h-194v331h133v-200h61v200h135v-524h-135zM75 172v132h61v262h-61v133h191v-395h63v-132h-254z" />
    <glyph glyph-name="onehalf" unicode="&#xbd;" horiz-adv-x="1135" 
d="M446 -64h-135l326 852h136zM736 0v327h196v69h-196v132h329v-332h-195v-64h195v-132h-329zM70 172v132h61v262h-61v133h191v-395h63v-132h-254z" />
    <glyph glyph-name="threequarters" unicode="&#xbe;" horiz-adv-x="1132" 
d="M470 -64h-135l326 852h136zM942 0v193h-194v331h133v-200h61v200h135v-524h-135zM55 173v132h199v62h-196v132h196v66h-199v133h331v-525h-331z" />
    <glyph glyph-name="ordfeminine" unicode="&#xaa;" horiz-adv-x="467" 
d="M70 262v325h194v68h-194v132h327v-525h-327zM264 455h-60v-59h60v59z" />
    <glyph glyph-name="twosuperior" unicode="&#xb2;" horiz-adv-x="469" 
d="M70 173v327h196v69h-196v132h329v-332h-195v-64h195v-132h-329z" />
    <glyph glyph-name="threesuperior" unicode="&#xb3;" horiz-adv-x="471" 
d="M70 172v132h199v62h-196v132h196v66h-199v133h331v-525h-331z" />
    <glyph glyph-name="onesuperior" unicode="&#xb9;" horiz-adv-x="536" 
d="M70 172v132h132v262h-132v133h262v-395h134v-132h-396z" />
    <glyph glyph-name="ordmasculine" unicode="&#xba;" horiz-adv-x="467" 
d="M70 787h327v-525h-327v525zM203 654v-256h59v256h-59z" />
    <glyph glyph-name="exclam" unicode="!" horiz-adv-x="277" 
d="M72 196v528h133v-528h-133zM72 0v132h133v-132h-133z" />
    <glyph glyph-name="Hbar" unicode="&#x126;" 
d="M400 0v322h-196v-322h-132v546h-51v103h51v75h132v-75h196v75h134v-75h51v-103h-51v-546h-134zM400 448v98h-196v-98h196z" />
    <glyph glyph-name="hbar" unicode="&#x127;" horiz-adv-x="610" 
d="M448 0v335h-189v-335h-132v542h-100v103h99v79h134v-79h193v-103h-194v-75h323v-467h-134z" />
    <glyph glyph-name="Eng" unicode="&#x14a;" 
d="M534 -198h-195v120h68v78l-203 419v-419h-132v724h132l196 -412v412h134v-922z" />
    <glyph glyph-name="eng" unicode="&#x14b;" 
d="M205 0h-133v592h462v-790h-195v120h63l-1 537h-196v-459z" />
    <glyph glyph-name="Tbar" unicode="&#x166;" horiz-adv-x="522" 
d="M325 591v-114h167v-92h-167v-385h-132v385h-162v92h162v114h-163v133h462v-133h-167z" />
    <glyph glyph-name="tbar" unicode="&#x167;" horiz-adv-x="590" 
d="M55 385h67v74h-68v132h68v133h133v-133h263v-132h-263v-74h261v-107h-261v-146h264l-1 -132h-396v278h-67v107z" />
    <glyph glyph-name="afii10023" unicode="&#x401;" 
d="M72 0v724h462v-133h-330v-143h317v-129h-317v-187h332v-132h-464zM363 773v100h98v-100h-98zM176 773v100h98v-100h-98z" />
    <glyph glyph-name="afii10051" unicode="&#x402;" horiz-adv-x="720" 
d="M433 -124v124h81v322h-189v-322h-132v592h-163v132h489v-132h-194v-138h323v-578h-215z" />
    <glyph glyph-name="afii10052" unicode="&#x403;" horiz-adv-x="532" 
d="M72 0v724h462v-133h-330v-591h-132zM251 771l44 149h125l-81 -149h-88z" />
    <glyph glyph-name="afii10053" unicode="&#x404;" horiz-adv-x="605" 
d="M529 592h-274l-50 -53v-91h316v-129h-316v-134l50 -53h279v-132h-333l-128 128v467l124 129h332v-132z" />
    <glyph glyph-name="afii10054" unicode="&#x405;" 
d="M72 0v132h328v185h-328v407h462v-132h-329v-144h329v-448h-462z" />
    <glyph glyph-name="afii10055" unicode="&#x406;" horiz-adv-x="276" 
d="M72 0v724h132v-724h-132z" />
    <glyph glyph-name="afii10056" unicode="&#x407;" horiz-adv-x="276" 
d="M72 0v724h132v-724h-132zM185 774v100h98v-100h-98zM-2 774v100h98v-100h-98z" />
    <glyph glyph-name="afii10057" unicode="&#x408;" horiz-adv-x="534" 
d="M0 0v264h132v-134h196v594h134v-724h-462z" />
    <glyph glyph-name="afii10058" unicode="&#x409;" horiz-adv-x="941" 
d="M735 316h-195v-184h195v184zM136 531l122 193h282v-276h329v-448h-462v592h-73l-65 -106v-486h-234v132h101v399z" />
    <glyph glyph-name="afii10059" unicode="&#x40a;" horiz-adv-x="932" 
d="M860 448v-448h-462v316h-194v-316h-132v724h132v-276h194v276h133v-276h329zM726 316h-195v-184h195v184z" />
    <glyph glyph-name="afii10060" unicode="&#x40b;" horiz-adv-x="720" 
d="M514 0v316h-189v-316h-132v592h-163v132h489v-132h-194v-144h323v-448h-134z" />
    <glyph glyph-name="afii10061" unicode="&#x40c;" 
d="M366 448h170v-448h-134v317h-195v-317h-133v724h133v-276l179 276h159zM237 773l44 149h125l-81 -149h-88z" />
    <glyph glyph-name="afii10062" unicode="&#x40e;" 
d="M72 0v132h330v137h-330v455h133v-323h197v323h132v-724h-462zM171 774v175h84v-93h101v93h86v-175h-271z" />
    <glyph glyph-name="afii10145" unicode="&#x40f;" 
d="M534 724v-724h-159v-151h-135v151h-168v724h133v-592h195v592h134z" />
    <glyph glyph-name="afii10017" unicode="&#x410;" 
d="M400 0v264h-195v-264h-133v724h462v-724h-134zM400 592h-195v-196h195v196z" />
    <glyph glyph-name="afii10018" unicode="&#x411;" 
d="M534 448v-448h-462v724h454v-132h-321v-144h329zM400 316h-195v-184h195v184z" />
    <glyph glyph-name="afii10019" unicode="&#x412;" 
d="M72 0v724h462v-271l-68 -62l68 -70v-321h-462zM400 591h-195v-143h195v143zM400 320h-195v-188h195v188z" />
    <glyph glyph-name="afii10020" unicode="&#x413;" horiz-adv-x="532" 
d="M72 0v724h462v-133h-330v-591h-132z" />
    <glyph glyph-name="afii10021" unicode="&#x414;" horiz-adv-x="660" 
d="M35 132h69v399l123 193h338v-592h60v-272h-133v140h-324v-140h-133v272zM238 491v-359h196v460h-131z" />
    <glyph glyph-name="afii10022" unicode="&#x415;" 
d="M72 0v724h462v-133h-330v-143h317v-129h-317v-187h332v-132h-464z" />
    <glyph glyph-name="afii10024" unicode="&#x416;" horiz-adv-x="908" 
d="M675 448h174v-448h-134v326h-195v-326h-133v326h-194v-326h-134v448h170l-179 276h161l176 -275v275h133v-276l179 276h159z" />
    <glyph glyph-name="afii10026" unicode="&#x418;" 
d="M72 0v724h134v-417l196 417h132v-724h-132v424l-203 -424h-127z" />
    <glyph glyph-name="afii10027" unicode="&#x419;" 
d="M72 0v724h134v-417l196 417h132v-724h-132v424l-203 -424h-127zM178 773v175h84v-93h101v93h86v-175h-271z" />
    <glyph glyph-name="afii10028" unicode="&#x41a;" 
d="M366 448h170v-448h-134v317h-195v-317h-133v724h133v-276l179 276h159z" />
    <glyph glyph-name="afii10029" unicode="&#x41b;" horiz-adv-x="642" 
d="M269 0h-234v132h100v399l123 193h312v-724h-134v592h-102l-65 -106v-486z" />
    <glyph glyph-name="afii10030" unicode="&#x41c;" horiz-adv-x="738" 
d="M204 431v-431h-132v724h132l165 -341l165 341h132v-724h-132v431l-142 -291h-46z" />
    <glyph glyph-name="afii10031" unicode="&#x41d;" 
d="M400 0v322h-196v-322h-132v724h132v-276h196v276h134v-724h-134z" />
    <glyph glyph-name="afii10032" unicode="&#x41e;" 
d="M72 0v724h462v-724h-462zM400 591h-195v-459h195v459z" />
    <glyph glyph-name="afii10034" unicode="&#x420;" horiz-adv-x="584" 
d="M205 316v-316h-133v724h462v-408h-329zM400 591h-195v-143h195v143z" />
    <glyph glyph-name="afii10035" unicode="&#x421;" horiz-adv-x="584" 
d="M72 0v724h462v-133h-330v-459h330v-132h-462z" />
    <glyph glyph-name="afii10036" unicode="&#x422;" horiz-adv-x="522" 
d="M325 591v-591h-132v591h-163v133h462v-133h-167z" />
    <glyph glyph-name="afii10037" unicode="&#x423;" 
d="M72 0v132h330v137h-330v455h133v-323h197v323h132v-724h-462z" />
    <glyph glyph-name="afii10038" unicode="&#x424;" horiz-adv-x="741" 
d="M437 95v-95h-131v95h-234v563h234v66h131v-66h232v-563h-232zM205 525v-298h101v298h-101zM535 525h-98v-298h98v298z" />
    <glyph glyph-name="afii10039" unicode="&#x425;" horiz-adv-x="550" 
d="M538 0h-151l-112 226l-113 -226h-151l188 361l-188 363h150l114 -225l113 225h151l-189 -363z" />
    <glyph glyph-name="afii10040" unicode="&#x426;" horiz-adv-x="624" 
d="M530 131h59v-271h-133v140h-384v724h133v-592h194v592h131v-593z" />
    <glyph glyph-name="afii10041" unicode="&#x427;" 
d="M402 0v269h-330v455h133v-323h197v323h132v-724h-132z" />
    <glyph glyph-name="afii10042" unicode="&#x428;" horiz-adv-x="814" 
d="M742 724v-724h-670v724h134v-592h135v592h133v-592h137v592h131z" />
    <glyph glyph-name="afii10043" unicode="&#x429;" horiz-adv-x="875" 
d="M668 0h-596v724h134v-592h135v592h134v-592h137v592h130v-592h61v-272h-135v140z" />
    <glyph glyph-name="afii10044" unicode="&#x42a;" horiz-adv-x="747" 
d="M30 724h316v-276h329v-448h-462v592h-183v132zM541 316h-195v-184h195v184z" />
    <glyph glyph-name="afii10045" unicode="&#x42b;" horiz-adv-x="822" 
d="M534 448v-448h-462v724h133v-276h329zM400 316h-195v-184h195v184zM618 0v724h132v-724h-132z" />
    <glyph glyph-name="afii10046" unicode="&#x42c;" 
d="M534 448v-448h-462v724h133v-276h329zM400 316h-195v-184h195v184z" />
    <glyph glyph-name="afii10048" unicode="&#x42e;" horiz-adv-x="903" 
d="M369 0v320h-165v-320h-132v724h132v-276h165v276h462v-724h-462zM697 592h-195v-460h195v460z" />
    <glyph glyph-name="afii10049" unicode="&#x42f;" 
d="M403 592h-195v-195h195v195zM64 0l106 266h-96v458h462v-724h-133v266h-94l-107 -266h-138z" />
    <glyph glyph-name="afii10065" unicode="&#x430;" horiz-adv-x="607" 
d="M72 0v395h328v64h-325v133h460v-592h-463zM400 264h-195v-132h195v132z" />
    <glyph glyph-name="afii10066" unicode="&#x431;" 
d="M206 482h328v-482h-462v724h267v92h135l1 -224h-269v-110zM402 348h-196v-216h196v216z" />
    <glyph glyph-name="afii10067" unicode="&#x432;" 
d="M72 -1v593h462v-220l-68 -62l68 -70v-241h-462zM400 458h-195v-86h195v86zM400 240h-195v-108h195v108z" />
    <glyph glyph-name="afii10068" unicode="&#x433;" horiz-adv-x="538" 
d="M72 0v592h423v-133h-291v-459h-132z" />
    <glyph glyph-name="afii10069" unicode="&#x434;" horiz-adv-x="662" 
d="M25 132h74v267l123 193h340v-460h65v-272h-133v140h-336v-140h-133v272zM233 356v-224h198v327h-137z" />
    <glyph glyph-name="afii10070" unicode="&#x435;" 
d="M72 0v592h462v-393h-329v-67h329v-132h-462zM400 459h-195v-132h195v132z" />
    <glyph glyph-name="afii10072" unicode="&#x436;" horiz-adv-x="955" 
d="M72 592h163l176 -243v243h133v-243l178 243h161l-182 -243h172v-349h-134v228h-195v-228h-133v228h-195v-228h-134v349h165z" />
    <glyph glyph-name="afii10073" unicode="&#x437;" horiz-adv-x="597" 
d="M525 128l-128 -128h-328v132h278l45 48v64h-310v123h305v34l-69 57h-246v134h299l154 -139v-86l-68 -58l68 -65v-116z" />
    <glyph glyph-name="afii10074" unicode="&#x438;" 
d="M72 0v592h134v-357l195 357h133v-592h-133v344l-195 -344h-134z" />
    <glyph glyph-name="afii10075" unicode="&#x439;" 
d="M72 0v592h134v-357l195 357h133v-592h-133v344l-195 -344h-134zM171 627v175h84v-93h101v93h86v-175h-271z" />
    <glyph glyph-name="afii10076" unicode="&#x43a;" horiz-adv-x="616" 
d="M375 395h159v-395h-134v264h-195v-264h-133v592h133v-197l166 197h173z" />
    <glyph glyph-name="afii10077" unicode="&#x43b;" horiz-adv-x="648" 
d="M253 592h323v-592h-133v459h-118l-61 -103v-356h-234v132h101l-1 267z" />
    <glyph glyph-name="afii10078" unicode="&#x43c;" horiz-adv-x="802" 
d="M599 0v459h-131v-459h-132v459h-131v-459h-133v592h658v-592h-131z" />
    <glyph glyph-name="afii10079" unicode="&#x43d;" 
d="M400 0v243h-196v-243h-132v592h132v-217h196v217h134v-592h-134z" />
    <glyph glyph-name="afii10080" unicode="&#x43e;" 
d="M72 592h462v-592h-462v592zM205 458v-326h198v326h-198z" />
    <glyph glyph-name="afii10081" unicode="&#x43f;" 
d="M205 0h-133v592h462v-592h-133v459h-196v-459z" />
    <glyph glyph-name="afii10082" unicode="&#x440;" 
d="M72 592h462v-592h-330v-198h-132v790zM204 132h197v327h-197v-327z" />
    <glyph glyph-name="afii10083" unicode="&#x441;" horiz-adv-x="518" 
d="M72 0v592h396v-133h-263v-327h263v-132h-396z" />
    <glyph glyph-name="afii10084" unicode="&#x442;" horiz-adv-x="512" 
d="M322 459v-459h-132v459h-160v133h452v-133h-160z" />
    <glyph glyph-name="afii10085" unicode="&#x443;" 
d="M72 -198v132h330v66h-330v592h133v-460h197v460h132v-790h-462z" />
    <glyph glyph-name="afii10086" unicode="&#x444;" horiz-adv-x="770" 
d="M452 67v-265h-133v265h-247v525h247v132h133v-132h246v-525h-246zM566 459h-114v-260h114v260zM319 199v260h-114v-260h114z" />
    <glyph glyph-name="afii10087" unicode="&#x445;" horiz-adv-x="579" 
d="M288 172l-107 -172h-155l185 295l-185 297h155l107 -173l108 173h155l-185 -297l185 -295h-155z" />
    <glyph glyph-name="afii10088" unicode="&#x446;" horiz-adv-x="619" 
d="M530 132h59v-272h-133v140h-384v592h133v-460h194v460h131v-460z" />
    <glyph glyph-name="afii10089" unicode="&#x447;" 
d="M402 0v204h-330v388h133v-256h197v256h132v-592h-132z" />
    <glyph glyph-name="afii10090" unicode="&#x448;" horiz-adv-x="802" 
d="M730 592v-592h-658v592h133v-460h131v460h132v-460h131v460h131z" />
    <glyph glyph-name="afii10091" unicode="&#x449;" horiz-adv-x="838" 
d="M803 132v-272h-135l-1 140h-595v592h133v-460h131v460h132v-460h131v460h131v-460h73z" />
    <glyph glyph-name="afii10092" unicode="&#x44a;" horiz-adv-x="751" 
d="M350 592v-195h329v-397h-462v460h-182v132h315zM545 265h-195v-133h195v133z" />
    <glyph glyph-name="afii10093" unicode="&#x44b;" horiz-adv-x="819" 
d="M534 397v-397h-462v592h133v-195h329zM400 265h-195v-133h195v133zM615 0v592h132v-592h-132z" />
    <glyph glyph-name="afii10094" unicode="&#x44c;" 
d="M534 397v-397h-462v592h133v-195h329zM400 265h-195v-133h195v133z" />
    <glyph glyph-name="afii10095" unicode="&#x44d;" horiz-adv-x="539" 
d="M62 592h297l126 -130v-335l-129 -127h-294v132h241l45 46v64h-282v127h282v43l-6 6l-14 14l-26 26h-240v134z" />
    <glyph glyph-name="afii10096" unicode="&#x44e;" horiz-adv-x="876" 
d="M342 0v242h-138v-242h-132v592h132v-218h138v218h462v-592h-462zM670 459h-195v-327h195v327z" />
    <glyph glyph-name="afii10097" unicode="&#x44f;" horiz-adv-x="608" 
d="M403 459h-195v-134h195v134zM73 0l106 194h-105v398h462v-592h-133v194h-79l-107 -194h-144z" />
    <glyph glyph-name="afii10071" unicode="&#x451;" 
d="M72 0v592h462v-393h-329v-67h329v-132h-462zM400 459h-195v-132h195v132zM346 631v100h98v-100h-98zM159 631v100h98v-100h-98z" />
    <glyph glyph-name="afii10099" unicode="&#x452;" horiz-adv-x="610" 
d="M367 -164v124h81v375h-189v-335h-132v542h-100v103h99v79h134v-79h193v-103h-194v-75h323v-631h-215z" />
    <glyph glyph-name="afii10100" unicode="&#x453;" horiz-adv-x="538" 
d="M72 0v592h423v-133h-291v-459h-132zM211 641l44 149h125l-81 -149h-88z" />
    <glyph glyph-name="afii10101" unicode="&#x454;" horiz-adv-x="539" 
d="M486 458h-240l-40 -40l-6 -6v-43h282v-127h-282v-64l45 -46h241v-132h-294l-129 127v335l126 130h297v-134z" />
    <glyph glyph-name="afii10102" unicode="&#x455;" 
d="M72 0v132h328v132h-328v328h462v-133h-329v-64h329v-395h-462z" />
    <glyph glyph-name="afii10103" unicode="&#x456;" horiz-adv-x="277" 
d="M72 0v395h133v-395h-133zM205 592v-133h-133v133h133z" />
    <glyph glyph-name="afii10104" unicode="&#x457;" horiz-adv-x="277" 
d="M72 0v591h133v-591h-133zM183 641v100h98v-100h-98zM-4 641v100h98v-100h-98z" />
    <glyph glyph-name="afii10105" unicode="&#x458;" horiz-adv-x="277" 
d="M72 395h133v-593h-270v132h137v461zM72 459v133h133v-133h-133z" />
    <glyph glyph-name="afii10106" unicode="&#x459;" horiz-adv-x="941" 
d="M735 265h-195v-133h195v133zM136 389l129 203h275v-195h329v-397h-462v459h-70l-68 -113v-346h-234v132h101v257z" />
    <glyph glyph-name="afii10107" unicode="&#x45a;" horiz-adv-x="932" 
d="M860 397v-397h-462v266h-194v-266h-132v592h132v-194h194v194h133v-195h329zM726 265h-195v-133h195v133z" />
    <glyph glyph-name="afii10108" unicode="&#x45b;" horiz-adv-x="610" 
d="M448 0v335h-189v-335h-132v542h-100v103h99v79h134v-79h193v-103h-194v-75h323v-467h-134z" />
    <glyph glyph-name="afii10109" unicode="&#x45c;" horiz-adv-x="616" 
d="M375 395h159v-395h-134v264h-195v-264h-133v592h133v-197l166 197h173zM251 628l44 149h125l-81 -149h-88z" />
    <glyph glyph-name="afii10110" unicode="&#x45e;" 
d="M176 641v175h90v-88h90v88h91v-175h-271zM72 -179v132h330v66h-330v592h133v-460h197v460h132v-790h-462z" />
    <glyph glyph-name="afii10193" unicode="&#x45f;" 
d="M534 592v-592h-159v-156h-135v156h-168v592h133v-460h195v460h134z" />
    <glyph glyph-name="afii10050" unicode="&#x490;" horiz-adv-x="538" 
d="M56 0v724h298v124h128v-256h-292v-592h-134z" />
    <glyph glyph-name="afii10098" unicode="&#x491;" horiz-adv-x="538" 
d="M56 0v592h299v132h128v-264h-293v-460h-134z" />
    <glyph glyph-name="ogonek" unicode="&#x2db;" horiz-adv-x="607" 
d="M250 -197v207h102v-110h83v-97h-185z" />
    <glyph glyph-name="ring" unicode="&#x2da;" horiz-adv-x="607" 
d="M399 640h-195v198h195v-198zM267 772v-66h70v66h-70z" />
    <glyph glyph-name="afii10033" unicode="&#x41f;" 
d="M400 0v591h-195v-591h-133v724h462v-724h-134z" />
    <glyph glyph-name="afii10047" unicode="&#x42d;" horiz-adv-x="605" 
d="M77 724h332l124 -129v-467l-128 -128h-333v132h279l50 53v134h-316v129h316v91l-50 53h-274v132z" />
    <glyph glyph-name="afii10025" unicode="&#x417;" horiz-adv-x="609" 
d="M537 128l-128 -128h-341v132h290l45 48v139h-320v128h320v66l-89 79h-238v132h287l174 -159v-120l-68 -60l68 -67v-190z" />
    <glyph glyph-name="primemod" unicode="&#x2b9;" horiz-adv-x="211" 
d="M18 474l117 316h125l-154 -316h-88z" />
    <glyph glyph-name="anoteleia" unicode="&#x387;" horiz-adv-x="277" 
d="M72 395v132h133v-132h-133z" />
    <glyph glyph-name="uniE299" unicode="&#xe299;" 
d="M399 773h-195v198h195v-198zM267 905v-66h70v66h-70z" />
    <glyph glyph-name="Circumflex" unicode="&#xf6c0;" 
d="M301 854l-67 -80h-102l132 165h75l134 -165h-107z" />
    <glyph glyph-name="commaaccent" unicode="&#xf6c3;" 
d="M222 -320l30 132v132h113v-129l-30 -135h-113z" />
    <glyph glyph-name="Acute" unicode="&#xf6c9;" 
d="M251 773l44 149h125l-81 -149h-88z" />
    <glyph glyph-name="Caron" unicode="&#xf6ca;" 
d="M303 858l67 80h102l-132 -165h-75l-134 165h107z" />
    <glyph glyph-name="Dieresis" unicode="&#xf6cb;" 
d="M350 775v100h98v-100h-98zM163 775v100h98v-100h-98z" />
    <glyph glyph-name="DieresisAcute" unicode="&#xf6cc;" 
d="M402 774v100h98v-100h-98zM108 774v100h98v-100h-98zM223 757l44 149h125l-81 -149h-88z" />
    <glyph glyph-name="DieresisGrave" unicode="&#xf6cd;" 
d="M402 774v100h98v-100h-98zM108 774v100h98v-100h-98zM292 757l-81 149h125l44 -149h-88z" />
    <glyph glyph-name="Grave" unicode="&#xf6ce;" 
d="M258 774l-81 149h125l44 -149h-88z" />
    <glyph glyph-name="Hungarumlaut" unicode="&#xf6cf;" 
d="M161 773l44 149h125l-81 -149h-88zM317 773l44 149h125l-81 -149h-88z" />
    <glyph glyph-name="Macron" unicode="&#xf6d0;" 
d="M146 774v110h313v-110h-313z" />
    <glyph glyph-name="cyrBreve" unicode="&#xf6d1;" 
d="M171 773v175h84v-93h101v93h86v-175h-271z" />
    <glyph glyph-name="cyrbreve" unicode="&#xf6d4;" horiz-adv-x="607" 
d="M171 641v175h84v-93h101v93h86v-175h-271z" />
    <glyph glyph-name="Scaron" unicode="&#x160;" 
d="M72 0v132h328v185h-328v407h462v-132h-329v-144h329v-448h-462zM300 858l67 80h102l-132 -165h-75l-134 165h107z" />
    <glyph glyph-name="Zcaron" unicode="&#x17d;" 
d="M72 0v132l300 459h-300v133h462v-128l-303 -464h303v-132h-462zM315 858l67 80h102l-132 -165h-75l-134 165h107z" />
    <glyph glyph-name="scaron" unicode="&#x161;" 
d="M72 0v132h328v132h-328v328h462v-133h-329v-64h329v-395h-462zM318 725l67 80h102l-132 -165h-75l-134 165h107z" />
    <glyph glyph-name="zcaron" unicode="&#x17e;" 
d="M72 0v132l282 326h-282v134h462v-134l-282 -326h282v-132h-462zM313 726l67 80h102l-132 -165h-75l-134 165h107z" />
    <glyph glyph-name="Ydieresis" unicode="&#x178;" 
d="M72 0v132h330v131h-330v461h133v-330h197v330h132v-724h-462zM347 775v100h98v-100h-98zM160 775v100h98v-100h-98z" />
    <glyph glyph-name="Agrave" unicode="&#xc0;" 
d="M400 0v264h-195v-264h-133v724h462v-724h-134zM400 592h-195v-196h195v196zM263 774l-81 149h125l44 -149h-88z" />
    <glyph glyph-name="Aacute" unicode="&#xc1;" 
d="M400 0v264h-195v-264h-133v724h462v-724h-134zM400 592h-195v-196h195v196zM251 773l44 149h125l-81 -149h-88z" />
    <glyph glyph-name="Acircumflex" unicode="&#xc2;" 
d="M400 0v264h-195v-264h-133v724h462v-724h-134zM400 592h-195v-196h195v196zM302 854l-67 -80h-102l132 165h75l134 -165h-107z" />
    <glyph glyph-name="Atilde" unicode="&#xc3;" 
d="M400 0v264h-195v-264h-133v724h462v-724h-134zM400 592h-195v-196h195v196zM221 837v-61h-73v146h71l166 -69v69h76v-149h-78z" />
    <glyph glyph-name="Adieresis" unicode="&#xc4;" 
d="M400 0v264h-195v-264h-133v724h462v-724h-134zM400 592h-195v-196h195v196zM350 775v100h98v-100h-98zM163 775v100h98v-100h-98z" />
    <glyph glyph-name="Aring" unicode="&#xc5;" 
d="M400 0v264h-195v-264h-133v724h462v-724h-134zM400 592h-195v-196h195v196zM400 773h-195v198h195v-198zM268 905v-66h70v66h-70z" />
    <glyph glyph-name="Egrave" unicode="&#xc8;" 
d="M72 0v724h462v-133h-330v-143h317v-129h-317v-187h332v-132h-464zM254 774l-81 149h125l44 -149h-88z" />
    <glyph glyph-name="Eacute" unicode="&#xc9;" 
d="M72 0v724h462v-133h-330v-143h317v-129h-317v-187h332v-132h-464zM255 773l44 149h125l-81 -149h-88z" />
    <glyph glyph-name="Ecircumflex" unicode="&#xca;" 
d="M72 0v724h462v-133h-330v-143h317v-129h-317v-187h332v-132h-464zM301 854l-67 -80h-102l132 165h75l134 -165h-107z" />
    <glyph glyph-name="Edieresis" unicode="&#xcb;" 
d="M72 0v724h462v-133h-330v-143h317v-129h-317v-187h332v-132h-464zM350 774v100h98v-100h-98zM163 774v100h98v-100h-98z" />
    <glyph glyph-name="Igrave" unicode="&#xcc;" horiz-adv-x="276" 
d="M72 0v724h132v-724h-132zM101 774l-81 149h125l44 -149h-88z" />
    <glyph glyph-name="Iacute" unicode="&#xcd;" horiz-adv-x="276" 
d="M72 0v724h132v-724h-132zM89 773l44 149h125l-81 -149h-88z" />
    <glyph glyph-name="Icircumflex" unicode="&#xce;" horiz-adv-x="276" 
d="M72 0v724h132v-724h-132zM138 854l-67 -80h-102l132 165h75l134 -165h-107z" />
    <glyph glyph-name="Idieresis" unicode="&#xcf;" horiz-adv-x="276" 
d="M72 0v724h132v-724h-132zM185 773v100h98v-100h-98zM-2 773v100h98v-100h-98z" />
    <glyph glyph-name="Ntilde" unicode="&#xd1;" 
d="M407 0l-203 419v-419h-132v724h132l196 -412v412h134v-724h-127zM203 838v-61h-73v146h71l166 -69v69h76v-149h-78z" />
    <glyph glyph-name="Ograve" unicode="&#xd2;" 
d="M72 0v724h462v-724h-462zM400 591h-195v-459h195v459zM277 774l-81 149h125l44 -149h-88z" />
    <glyph glyph-name="Oacute" unicode="&#xd3;" 
d="M72 0v724h462v-724h-462zM400 591h-195v-459h195v459zM259 773l44 149h125l-81 -149h-88z" />
    <glyph glyph-name="Ocircumflex" unicode="&#xd4;" 
d="M72 0v724h462v-724h-462zM400 591h-195v-459h195v459zM306 854l-67 -80h-102l132 165h75l134 -165h-107z" />
    <glyph glyph-name="Otilde" unicode="&#xd5;" 
d="M72 0v724h462v-724h-462zM400 591h-195v-459h195v459zM223 839v-61h-73v146h71l166 -69v69h76v-149h-78z" />
    <glyph glyph-name="Odieresis" unicode="&#xd6;" 
d="M72 0v724h462v-724h-462zM400 591h-195v-459h195v459zM346 775v100h98v-100h-98zM159 775v100h98v-100h-98z" />
    <glyph glyph-name="Ugrave" unicode="&#xd9;" 
d="M72 0v724h132v-592h196v592h134v-724h-462zM272 774l-81 149h125l44 -149h-88z" />
    <glyph glyph-name="Uacute" unicode="&#xda;" 
d="M72 0v724h132v-592h196v592h134v-724h-462zM260 773l44 149h125l-81 -149h-88z" />
    <glyph glyph-name="Ucircumflex" unicode="&#xdb;" 
d="M72 0v724h132v-592h196v592h134v-724h-462zM304 854l-67 -80h-102l132 165h75l134 -165h-107z" />
    <glyph glyph-name="Udieresis" unicode="&#xdc;" 
d="M72 0v724h132v-592h196v592h134v-724h-462zM351 775v100h98v-100h-98zM164 775v100h98v-100h-98z" />
    <glyph glyph-name="Yacute" unicode="&#xdd;" 
d="M72 0v132h330v131h-330v461h133v-330h197v330h132v-724h-462zM240 773l44 149h125l-81 -149h-88z" />
    <glyph glyph-name="agrave" unicode="&#xe0;" horiz-adv-x="607" 
d="M72 0v395h328v64h-325v133h460v-592h-463zM400 264h-195v-132h195v132zM269 641l-81 149h125l44 -149h-88z" />
    <glyph glyph-name="aacute" unicode="&#xe1;" horiz-adv-x="607" 
d="M72 0v395h328v64h-325v133h460v-592h-463zM400 264h-195v-132h195v132zM256 641l44 149h125l-81 -149h-88z" />
    <glyph glyph-name="acircumflex" unicode="&#xe2;" horiz-adv-x="607" 
d="M72 0v395h328v64h-325v133h460v-592h-463zM400 264h-195v-132h195v132zM296 721l-67 -80h-102l132 165h75l134 -165h-107z" />
    <glyph glyph-name="atilde" unicode="&#xe3;" horiz-adv-x="607" 
d="M72 0v395h328v64h-325v133h460v-592h-463zM400 264h-195v-132h195v132zM217 703v-61h-73v146h71l166 -69v69h76v-149h-78z" />
    <glyph glyph-name="adieresis" unicode="&#xe4;" horiz-adv-x="607" 
d="M72 0v395h328v64h-325v133h460v-592h-463zM400 264h-195v-132h195v132zM343 641v100h98v-100h-98zM156 641v100h98v-100h-98z" />
    <glyph glyph-name="aring" unicode="&#xe5;" horiz-adv-x="607" 
d="M72 0v395h328v64h-325v133h460v-592h-463zM400 264h-195v-132h195v132zM399 641h-195v198h195v-198zM267 773v-66h70v66h-70z" />
    <glyph glyph-name="egrave" unicode="&#xe8;" 
d="M72 0v592h462v-393h-329v-67h329v-132h-462zM400 459h-195v-132h195v132zM240 641l-81 149h125l44 -149h-88z" />
    <glyph glyph-name="eacute" unicode="&#xe9;" 
d="M72 0v592h462v-393h-329v-67h329v-132h-462zM400 459h-195v-132h195v132zM261 641l44 149h125l-81 -149h-88z" />
    <glyph glyph-name="ecircumflex" unicode="&#xea;" 
d="M72 0v592h462v-393h-329v-67h329v-132h-462zM400 459h-195v-132h195v132zM306 721l-67 -80h-102l132 165h75l134 -165h-107z" />
    <glyph glyph-name="edieresis" unicode="&#xeb;" 
d="M72 0v592h462v-393h-329v-67h329v-132h-462zM400 459h-195v-132h195v132zM349 641v100h98v-100h-98zM162 641v100h98v-100h-98z" />
    <glyph glyph-name="igrave" unicode="&#xec;" horiz-adv-x="277" 
d="M72 0v591h133v-591h-133zM99 641l-81 149h125l44 -149h-88z" />
    <glyph glyph-name="iacute" unicode="&#xed;" horiz-adv-x="277" 
d="M72 0v591h133v-591h-133zM93 641l44 149h125l-81 -149h-88z" />
    <glyph glyph-name="icircumflex" unicode="&#xee;" horiz-adv-x="277" 
d="M72 0v591h133v-591h-133zM141 721l-67 -80h-102l132 165h75l134 -165h-107z" />
    <glyph glyph-name="idieresis" unicode="&#xef;" horiz-adv-x="277" 
d="M72 0v591h133v-591h-133zM185 641v100h98v-100h-98zM-2 641v100h98v-100h-98z" />
    <glyph glyph-name="ntilde" unicode="&#xf1;" 
d="M205 0h-133v592h462v-592h-133v459h-196v-459zM213 703v-61h-73v146h71l166 -69v69h76v-149h-78z" />
    <glyph glyph-name="ograve" unicode="&#xf2;" 
d="M72 592h462v-592h-462v592zM205 458v-326h198v326h-198zM246 641l-81 149h125l44 -149h-88z" />
    <glyph glyph-name="oacute" unicode="&#xf3;" 
d="M72 592h462v-592h-462v592zM205 458v-326h198v326h-198zM280 641l44 149h125l-81 -149h-88z" />
    <glyph glyph-name="ocircumflex" unicode="&#xf4;" 
d="M72 592h462v-592h-462v592zM205 458v-326h198v326h-198zM306 721l-67 -80h-102l132 165h75l134 -165h-107z" />
    <glyph glyph-name="otilde" unicode="&#xf5;" 
d="M72 592h462v-592h-462v592zM205 458v-326h198v326h-198zM224 703v-61h-73v146h71l166 -69v69h76v-149h-78z" />
    <glyph glyph-name="odieresis" unicode="&#xf6;" 
d="M72 592h462v-592h-462v592zM205 458v-326h198v326h-198zM349 641v100h98v-100h-98zM162 641v100h98v-100h-98z" />
    <glyph glyph-name="ugrave" unicode="&#xf9;" 
d="M72 0v592h133v-460h196v460h133v-592h-462zM268 641l-81 149h125l44 -149h-88z" />
    <glyph glyph-name="uacute" unicode="&#xfa;" 
d="M72 0v592h133v-460h196v460h133v-592h-462zM278 641l44 149h125l-81 -149h-88z" />
    <glyph glyph-name="ucircumflex" unicode="&#xfb;" 
d="M72 0v592h133v-460h196v460h133v-592h-462zM311 721l-67 -80h-102l132 165h75l134 -165h-107z" />
    <glyph glyph-name="udieresis" unicode="&#xfc;" 
d="M72 0v592h133v-460h196v460h133v-592h-462zM351 641v100h98v-100h-98zM164 641v100h98v-100h-98z" />
    <glyph glyph-name="yacute" unicode="&#xfd;" 
d="M72 -198v132h330v66h-330v592h133v-460h197v460h132v-790h-462zM259 641l44 149h125l-81 -149h-88z" />
    <glyph glyph-name="ydieresis" unicode="&#xff;" 
d="M72 -198v132h330v66h-330v592h133v-460h197v460h132v-790h-462zM359 641v100h98v-100h-98zM172 641v100h98v-100h-98z" />
    <glyph glyph-name="Amacron" unicode="&#x100;" 
d="M400 0v264h-195v-264h-133v724h462v-724h-134zM400 592h-195v-196h195v196zM156 774v110h313v-110h-313z" />
    <glyph glyph-name="amacron" unicode="&#x101;" horiz-adv-x="607" 
d="M72 0v395h328v64h-325v133h460v-592h-463zM400 264h-195v-132h195v132zM152 641v110h313v-110h-313z" />
    <glyph glyph-name="Abreve" unicode="&#x102;" 
d="M400 0v264h-195v-264h-133v724h462v-724h-134zM400 592h-195v-196h195v196zM170 773v175h84v-93h101v93h86v-175h-271z" />
    <glyph glyph-name="abreve" unicode="&#x103;" horiz-adv-x="607" 
d="M72 0v395h328v64h-325v133h460v-592h-463zM400 264h-195v-132h195v132zM166 627v175h84v-93h101v93h86v-175h-271z" />
    <glyph glyph-name="Aogonek" unicode="&#x104;" 
d="M400 -197v461h-195v-264h-133v724h462v-724h-32v-100h83v-97h-185zM400 592h-195v-196h195v196z" />
    <glyph glyph-name="aogonek" unicode="&#x105;" horiz-adv-x="607" 
d="M400 -195v195h-328v395h328v64h-325v133h460v-592h-33v-98h83v-97h-185zM400 264h-195v-132h195v132z" />
    <glyph glyph-name="Cacute" unicode="&#x106;" horiz-adv-x="584" 
d="M72 0v724h462v-133h-330v-459h330v-132h-462zM262 773l44 149h125l-81 -149h-88z" />
    <glyph glyph-name="cacute" unicode="&#x107;" horiz-adv-x="518" 
d="M72 0v592h396v-133h-263v-327h263v-132h-396zM251 641l44 149h125l-81 -149h-88z" />
    <glyph glyph-name="Ccircumflex" unicode="&#x108;" horiz-adv-x="584" 
d="M72 0v724h462v-133h-330v-459h330v-132h-462zM306 854l-67 -80h-102l132 165h75l134 -165h-107z" />
    <glyph glyph-name="ccircumflex" unicode="&#x109;" horiz-adv-x="518" 
d="M72 0v592h396v-133h-263v-327h263v-132h-396zM272 721l-67 -80h-102l132 165h75l134 -165h-107z" />
    <glyph glyph-name="Cdotaccent" unicode="&#x10a;" horiz-adv-x="584" 
d="M72 0v724h462v-133h-330v-459h330v-132h-462zM281 774v100h98v-100h-98z" />
    <glyph glyph-name="cdotaccent" unicode="&#x10b;" horiz-adv-x="518" 
d="M72 0v592h396v-133h-263v-327h263v-132h-396zM248 641v100h98v-100h-98z" />
    <glyph glyph-name="Ccaron" unicode="&#x10c;" horiz-adv-x="584" 
d="M72 0v724h462v-133h-330v-459h330v-132h-462zM308 858l67 80h102l-132 -165h-75l-134 165h107z" />
    <glyph glyph-name="ccaron" unicode="&#x10d;" horiz-adv-x="518" 
d="M72 0v592h396v-133h-263v-327h263v-132h-396zM270 726l67 80h102l-132 -165h-75l-134 165h107z" />
    <glyph glyph-name="Dcaron" unicode="&#x10e;" horiz-adv-x="650" 
d="M409 0h-337v724h337l191 -349v-29zM322 591h-118v-459h122l127 226zM257 858l67 80h102l-132 -165h-75l-134 165h107z" />
    <glyph glyph-name="dcaron" unicode="&#x10f;" horiz-adv-x="731" 
d="M588 461l30 132v132h113v-129l-30 -135h-113zM534 0h-462v527h328v197h134v-724zM400 395h-195v-263h195v263z" />
    <glyph glyph-name="Emacron" unicode="&#x112;" 
d="M72 0v724h462v-133h-330v-143h317v-129h-317v-187h332v-132h-464zM146 774v110h313v-110h-313z" />
    <glyph glyph-name="emacron" unicode="&#x113;" 
d="M72 0v592h462v-393h-329v-67h329v-132h-462zM400 459h-195v-132h195v132zM151 641v110h313v-110h-313z" />
    <glyph glyph-name="Ebreve" unicode="&#x114;" 
d="M72 0v724h462v-133h-330v-143h317v-129h-317v-187h332v-132h-464zM166 773v175h84v-93h101v93h86v-175h-271z" />
    <glyph glyph-name="ebreve" unicode="&#x115;" 
d="M72 0v592h462v-393h-329v-67h329v-132h-462zM400 459h-195v-132h195v132zM161 627v175h84v-93h101v93h86v-175h-271z" />
    <glyph glyph-name="Edotaccent" unicode="&#x116;" 
d="M72 0v724h462v-133h-330v-143h317v-129h-317v-187h332v-132h-464zM274 774v100h98v-100h-98z" />
    <glyph glyph-name="edotaccent" unicode="&#x117;" 
d="M72 0v592h462v-393h-329v-67h329v-132h-462zM400 459h-195v-132h195v132zM256 641v100h98v-100h-98z" />
    <glyph glyph-name="Eogonek" unicode="&#x118;" 
d="M353 -192v192h-281v724h462v-133h-330v-143h317v-129h-317v-187h332v-132h-81v-95h83v-97h-185z" />
    <glyph glyph-name="eogonek" unicode="&#x119;" 
d="M351 -187v187h-279v592h462v-393h-329v-67h329v-132h-81v-90h83v-97h-185zM400 459h-195v-132h195v132z" />
    <glyph glyph-name="Ecaron" unicode="&#x11a;" 
d="M72 0v724h462v-133h-330v-143h317v-129h-317v-187h332v-132h-464zM306 858l67 80h102l-132 -165h-75l-134 165h107z" />
    <glyph glyph-name="ecaron" unicode="&#x11b;" 
d="M72 0v592h462v-393h-329v-67h329v-132h-462zM400 459h-195v-132h195v132zM307 725l67 80h102l-132 -165h-75l-134 165h107z" />
    <glyph glyph-name="Gcircumflex" unicode="&#x11c;" 
d="M72 0v724h462v-133h-331v-459h197v185h-103v131h237v-448h-462zM306 854l-67 -80h-102l132 165h75l134 -165h-107z" />
    <glyph glyph-name="gcircumflex" unicode="&#x11d;" horiz-adv-x="607" 
d="M72 198v394h463v-394h-199v-66h199v-330h-463v131h331v67h-199v198h-132zM204 459v-132h199v132h-199zM306 721l-67 -80h-102l132 165h75l134 -165h-107z" />
    <glyph glyph-name="Gbreve" unicode="&#x11e;" 
d="M72 0v724h462v-133h-331v-459h197v185h-103v131h237v-448h-462zM188 773v175h84v-93h101v93h86v-175h-271z" />
    <glyph glyph-name="gbreve" unicode="&#x11f;" horiz-adv-x="607" 
d="M72 198v394h463v-394h-199v-66h199v-330h-463v131h331v67h-199v198h-132zM204 459v-132h199v132h-199zM171 627v175h84v-93h101v93h86v-175h-271z" />
    <glyph glyph-name="Gdotaccent" unicode="&#x120;" 
d="M72 0v724h462v-133h-331v-459h197v185h-103v131h237v-448h-462zM266 775v100h98v-100h-98z" />
    <glyph glyph-name="gdotaccent" unicode="&#x121;" horiz-adv-x="607" 
d="M72 198v394h463v-394h-199v-66h199v-330h-463v131h331v67h-199v198h-132zM204 459v-132h199v132h-199zM254 641v100h98v-100h-98z" />
    <glyph glyph-name="Gcommaaccent" unicode="&#x122;" 
d="M72 0v724h462v-133h-331v-459h197v185h-103v131h237v-448h-462zM222 -320l30 132v132h113v-129l-30 -135h-113z" />
    <glyph glyph-name="gcommaaccent" unicode="&#x123;" horiz-adv-x="607" 
d="M386 891l-30 -132v-132h-113v129l30 135h113zM72 198v394h463v-394h-199v-66h199v-330h-463v131h331v67h-199v198h-132zM204 459v-132h199v132h-199z" />
    <glyph glyph-name="Hcircumflex" unicode="&#x124;" 
d="M400 0v322h-196v-322h-132v724h132v-276h196v276h134v-724h-134zM303 854l-67 -80h-102l132 165h75l134 -165h-107z" />
    <glyph glyph-name="hcircumflex" unicode="&#x125;" 
d="M400 0v395h-195v-395h-133v724h133v-197h329v-527h-134zM128 854l-67 -80h-102l132 165h75l134 -165h-107z" />
    <glyph glyph-name="Itilde" unicode="&#x128;" horiz-adv-x="276" 
d="M72 0v724h132v-724h-132zM64 835v-61h-73v146h71l166 -69v69h76v-149h-78z" />
    <glyph glyph-name="itilde" unicode="&#x129;" horiz-adv-x="277" 
d="M72 0v591h133v-591h-133zM56 703v-61h-73v146h71l166 -69v69h76v-149h-78z" />
    <glyph glyph-name="Imacron" unicode="&#x12a;" horiz-adv-x="293" 
d="M83 0v724h132v-724h-132zM-10 775v110h313v-110h-313z" />
    <glyph glyph-name="imacron" unicode="&#x12b;" horiz-adv-x="293" 
d="M72 0v591h133v-591h-133zM-18 641v110h313v-110h-313z" />
    <glyph glyph-name="Ibreve" unicode="&#x12c;" horiz-adv-x="271" 
d="M0 773v175h84v-93h101v93h86v-175h-271zM68 0v724h132v-724h-132z" />
    <glyph glyph-name="ibreve" unicode="&#x12d;" horiz-adv-x="271" 
d="M65 0v591h133v-591h-133zM0 627v175h84v-93h101v93h86v-175h-271z" />
    <glyph glyph-name="Iogonek" unicode="&#x12e;" horiz-adv-x="276" 
d="M72 -197v921h132v-724h-30v-100h83v-97h-185z" />
    <glyph glyph-name="iogonek" unicode="&#x12f;" horiz-adv-x="277" 
d="M72 -196v591h133v-395h-31v-99h83v-97h-185zM205 592v-133h-133v133h133z" />
    <glyph glyph-name="Idotaccent" unicode="&#x130;" horiz-adv-x="276" 
d="M72 0v724h132v-724h-132zM90 773v100h98v-100h-98z" />
    <glyph glyph-name="dotlessi" unicode="&#x131;" horiz-adv-x="277" 
d="M72 0v591h133v-591h-133z" />
    <glyph glyph-name="IJ" unicode="&#x132;" horiz-adv-x="776" 
d="M71 0v724h132v-724h-132zM242 0v264h132v-134h196v594h134v-724h-462z" />
    <glyph glyph-name="ij" unicode="&#x133;" horiz-adv-x="499" 
d="M73 0v395h133v-395h-133zM206 592v-133h-133v133h133zM294 395h133v-593h-270v132h137v461zM294 459v133h133v-133h-133z" />
    <glyph glyph-name="Jcircumflex" unicode="&#x134;" horiz-adv-x="534" 
d="M0 1v264h132v-134h196v594h134v-724h-462zM394 854l-67 -80h-102l132 165h75l134 -165h-107z" />
    <glyph glyph-name="jcircumflex" unicode="&#x135;" horiz-adv-x="303" 
d="M72 591h133v-789h-270v132h137v657zM140 721l-67 -80h-102l132 165h75l134 -165h-107z" />
    <glyph glyph-name="Kcommaaccent" unicode="&#x136;" 
d="M366 448h170v-448h-134v317h-195v-317h-133v724h133v-276l179 276h159zM225 -300l30 132v132h113v-129l-30 -135h-113z" />
    <glyph glyph-name="kcommaaccent" unicode="&#x137;" horiz-adv-x="616" 
d="M375 395h159v-395h-134v264h-195v-264h-133v724h133v-329l166 197h173zM227 -320l30 132v132h113v-129l-30 -135h-113z" />
    <glyph glyph-name="kgreenlandic" unicode="&#x138;" horiz-adv-x="616" 
d="M375 395h159v-395h-134v264h-195v-264h-133v592h133v-197l166 197h173z" />
    <glyph glyph-name="Lacute" unicode="&#x139;" horiz-adv-x="540" 
d="M72 0v724h133v-592h329v-132h-462zM100 773l44 149h125l-81 -149h-88z" />
    <glyph glyph-name="lacute" unicode="&#x13a;" horiz-adv-x="277" 
d="M72 0v724h133v-724h-133zM96 773l44 149h125l-81 -149h-88z" />
    <glyph glyph-name="Lcommaaccent" unicode="&#x13b;" horiz-adv-x="540" 
d="M72 0v724h133v-592h329v-132h-462zM234 -320l30 132v132h113v-129l-30 -135h-113z" />
    <glyph glyph-name="lcommaaccent" unicode="&#x13c;" horiz-adv-x="277" 
d="M72 0v724h133v-724h-133zM64 -318l30 132v132h113v-129l-30 -135h-113z" />
    <glyph glyph-name="Lcaron" unicode="&#x13d;" horiz-adv-x="540" 
d="M72 0v724h133v-592h329v-132h-462zM321 459l30 132v132h113v-129l-30 -135h-113z" />
    <glyph glyph-name="lcaron" unicode="&#x13e;" horiz-adv-x="428" 
d="M282 460l30 132v132h113v-129l-30 -135h-113zM72 0v724h133v-724h-133z" />
    <glyph glyph-name="Ldot" unicode="&#x13f;" horiz-adv-x="540" 
d="M72 0v724h133v-592h329v-132h-462zM355 323v100h98v-100h-98z" />
    <glyph glyph-name="ldot" unicode="&#x140;" horiz-adv-x="371" 
d="M273 289v100h98v-100h-98zM72 0v724h133v-724h-133z" />
    <glyph glyph-name="Nacute" unicode="&#x143;" 
d="M407 0l-203 419v-419h-132v724h132l196 -412v412h134v-724h-127zM272 773l44 149h125l-81 -149h-88z" />
    <glyph glyph-name="nacute" unicode="&#x144;" 
d="M205 0h-133v592h462v-592h-133v459h-196v-459zM251 641l44 149h125l-81 -149h-88z" />
    <glyph glyph-name="Ncommaaccent" unicode="&#x145;" 
d="M407 0l-203 419v-419h-132v724h132l196 -412v412h134v-724h-127zM228 -320l30 132v132h113v-129l-30 -135h-113z" />
    <glyph glyph-name="ncommaaccent" unicode="&#x146;" 
d="M205 0h-133v592h462v-592h-133v459h-196v-459zM232 -320l30 132v132h113v-129l-30 -135h-113z" />
    <glyph glyph-name="Ncaron" unicode="&#x147;" 
d="M407 0l-203 419v-419h-132v724h132l196 -412v412h134v-724h-127zM306 858l67 80h102l-132 -165h-75l-134 165h107z" />
    <glyph glyph-name="ncaron" unicode="&#x148;" 
d="M205 0h-133v592h462v-592h-133v459h-196v-459zM307 725l67 80h102l-132 -165h-75l-134 165h107z" />
    <glyph glyph-name="napostrophe" unicode="&#x149;" horiz-adv-x="729" 
d="M328 0h-133v592h462v-592h-133v459h-196v-459zM10 565l30 132v132h113v-129l-30 -135h-113z" />
    <glyph glyph-name="Omacron" unicode="&#x14c;" 
d="M72 0v724h462v-724h-462zM400 591h-195v-459h195v459zM146 774v110h313v-110h-313z" />
    <glyph glyph-name="omacron" unicode="&#x14d;" 
d="M72 592h462v-592h-462v592zM205 458v-326h198v326h-198zM147 641v110h313v-110h-313z" />
    <glyph glyph-name="Obreve" unicode="&#x14e;" 
d="M72 0v724h462v-724h-462zM400 591h-195v-459h195v459zM163 773v175h84v-93h101v93h86v-175h-271z" />
    <glyph glyph-name="obreve" unicode="&#x14f;" 
d="M72 592h462v-592h-462v592zM205 458v-326h198v326h-198zM163 627v175h84v-93h101v93h86v-175h-271z" />
    <glyph glyph-name="Ohungarumlaut" unicode="&#x150;" 
d="M72 0v724h462v-724h-462zM400 591h-195v-459h195v459zM171 773l44 149h125l-81 -149h-88zM327 773l44 149h125l-81 -149h-88z" />
    <glyph glyph-name="ohungarumlaut" unicode="&#x151;" 
d="M72 592h462v-592h-462v592zM205 458v-326h198v326h-198zM156 628l44 149h125l-81 -149h-88zM312 628l44 149h125l-81 -149h-88z" />
    <glyph glyph-name="Racute" unicode="&#x154;" 
d="M205 397h195v194h-195v-194zM385 0l-105 266h-75v-266h-133v724h462v-458h-105l106 -266h-150zM232 773l44 149h125l-81 -149h-88z" />
    <glyph glyph-name="racute" unicode="&#x155;" horiz-adv-x="498" 
d="M336 327v132h-131v-459h-133v592h396v-265h-132zM205 629l44 149h125l-81 -149h-88z" />
    <glyph glyph-name="Rcommaaccent" unicode="&#x156;" 
d="M205 397h195v194h-195v-194zM385 0l-105 266h-75v-266h-133v724h462v-458h-105l106 -266h-150zM225 -300l30 132v132h113v-129l-30 -135h-113z" />
    <glyph glyph-name="rcommaaccent" unicode="&#x157;" horiz-adv-x="498" 
d="M336 327v132h-131v-459h-133v592h396v-265h-132zM63 -320l30 132v132h113v-129l-30 -135h-113z" />
    <glyph glyph-name="Rcaron" unicode="&#x158;" 
d="M205 397h195v194h-195v-194zM385 0l-105 266h-75v-266h-133v724h462v-458h-105l106 -266h-150zM304 858l67 80h102l-132 -165h-75l-134 165h107z" />
    <glyph glyph-name="rcaron" unicode="&#x159;" horiz-adv-x="498" 
d="M336 327v132h-131v-459h-133v592h396v-265h-132zM269 714l67 80h102l-132 -165h-75l-134 165h107z" />
    <glyph glyph-name="Sacute" unicode="&#x15a;" 
d="M72 0v132h328v185h-328v407h462v-132h-329v-144h329v-448h-462zM249 773l44 149h125l-81 -149h-88z" />
    <glyph glyph-name="sacute" unicode="&#x15b;" 
d="M72 0v132h328v132h-328v328h462v-133h-329v-64h329v-395h-462zM233 629l44 149h125l-81 -149h-88z" />
    <glyph glyph-name="Scircumflex" unicode="&#x15c;" 
d="M72 0v132h328v185h-328v407h462v-132h-329v-144h329v-448h-462zM305 854l-67 -80h-102l132 165h75l134 -165h-107z" />
    <glyph glyph-name="scircumflex" unicode="&#x15d;" 
d="M72 0v132h328v132h-328v328h462v-133h-329v-64h329v-395h-462zM301 708l-67 -80h-102l132 165h75l134 -165h-107z" />
    <glyph glyph-name="Scedilla" unicode="&#x15e;" 
d="M339 0v-28h75v-193h-147v79h66v37h-65v105h-196v132h328v185h-328v407h462v-132h-329v-144h329v-448h-195z" />
    <glyph glyph-name="scedilla" unicode="&#x15f;" 
d="M295 0v-28h75v-193h-147v79h66v37h-65v105h-152v132h328v132h-328v328h462v-133h-329v-64h329v-395h-239z" />
    <glyph glyph-name="Tcommaaccent" unicode="&#x162;" horiz-adv-x="522" 
d="M325 591v-591h-132v591h-163v133h462v-133h-167zM182 -320l30 132v132h113v-129l-30 -135h-113z" />
    <glyph glyph-name="tcommaaccent" unicode="&#x163;" horiz-adv-x="590" 
d="M122 0v459h-68v133h68v132h133v-132h263v-133h-263v-327h132v132h131v-264h-396zM244 -320l30 132v132h113v-129l-30 -135h-113z" />
    <glyph glyph-name="Tcaron" unicode="&#x164;" horiz-adv-x="522" 
d="M325 591v-591h-132v591h-163v133h462v-133h-167zM263 858l67 80h102l-132 -165h-75l-134 165h107z" />
    <glyph glyph-name="tcaron" unicode="&#x165;" horiz-adv-x="726" 
d="M584 574l30 132v132h113v-129l-30 -135h-113zM122 0v459h-68v133h68v132h133v-132h263v-133h-263v-327h132v132h131v-264h-396z" />
    <glyph glyph-name="Utilde" unicode="&#x168;" 
d="M72 0v724h132v-592h196v592h134v-724h-462zM217 837v-61h-73v146h71l166 -69v69h76v-149h-78z" />
    <glyph glyph-name="utilde" unicode="&#x169;" 
d="M72 0v592h133v-460h196v460h133v-592h-462zM220 694v-61h-73v146h71l166 -69v69h76v-149h-78z" />
    <glyph glyph-name="Umacron" unicode="&#x16a;" 
d="M72 0v724h132v-592h196v592h134v-724h-462zM144 774v110h313v-110h-313z" />
    <glyph glyph-name="umacron" unicode="&#x16b;" 
d="M72 0v592h133v-460h196v460h133v-592h-462zM156 629v110h313v-110h-313z" />
    <glyph glyph-name="Ubreve" unicode="&#x16c;" 
d="M72 0v724h132v-592h196v592h134v-724h-462zM165 777v175h84v-93h101v93h86v-175h-271z" />
    <glyph glyph-name="ubreve" unicode="&#x16d;" 
d="M72 0v592h133v-460h196v460h133v-592h-462zM170 627v175h84v-93h101v93h86v-175h-271z" />
    <glyph glyph-name="Uring" unicode="&#x16e;" 
d="M72 0v724h132v-592h196v592h134v-724h-462zM397 773h-195v198h195v-198zM265 905v-66h70v66h-70z" />
    <glyph glyph-name="uring" unicode="&#x16f;" 
d="M72 0v592h133v-460h196v460h133v-592h-462zM404 628h-195v198h195v-198zM272 760v-66h70v66h-70z" />
    <glyph glyph-name="Uhungarumlaut" unicode="&#x170;" 
d="M72 0v724h132v-592h196v592h134v-724h-462zM181 773l44 149h125l-81 -149h-88zM337 773l44 149h125l-81 -149h-88z" />
    <glyph glyph-name="uhungarumlaut" unicode="&#x171;" 
d="M72 0v592h133v-460h196v460h133v-592h-462zM178 630l44 149h125l-81 -149h-88zM334 630l44 149h125l-81 -149h-88z" />
    <glyph glyph-name="Wcircumflex" unicode="&#x174;" horiz-adv-x="738" 
d="M534 0l-164 285l-166 -285h-132v724h132v-459l143 249h44l143 -249v459h132v-724h-132zM369 854l-67 -80h-102l132 165h75l134 -165h-107z" />
    <glyph glyph-name="wcircumflex" unicode="&#x175;" horiz-adv-x="802" 
d="M72 0v592h133v-460h131v460h132v-460h131v460h131v-592h-658zM403 709l-67 -80h-102l132 165h75l134 -165h-107z" />
    <glyph glyph-name="Ycircumflex" unicode="&#x176;" 
d="M72 0v132h330v131h-330v461h133v-330h197v330h132v-724h-462zM310 854l-67 -80h-102l132 165h75l134 -165h-107z" />
    <glyph glyph-name="ycircumflex" unicode="&#x177;" 
d="M72 -198v132h330v66h-330v592h133v-460h197v460h132v-790h-462zM305 705l-67 -80h-102l132 165h75l134 -165h-107z" />
    <glyph glyph-name="Zacute" unicode="&#x179;" 
d="M72 0v132l300 459h-300v133h462v-128l-303 -464h303v-132h-462zM263 773l44 149h125l-81 -149h-88z" />
    <glyph glyph-name="zacute" unicode="&#x17a;" 
d="M72 0v132l282 326h-282v134h462v-134l-282 -326h282v-132h-462zM266 630l44 149h125l-81 -149h-88z" />
    <glyph glyph-name="Zdotaccent" unicode="&#x17b;" 
d="M72 0v132l300 459h-300v133h462v-128l-303 -464h303v-132h-462zM258 773v100h98v-100h-98z" />
    <glyph glyph-name="zdotaccent" unicode="&#x17c;" 
d="M72 0v132l282 326h-282v134h462v-134l-282 -326h282v-132h-462zM262 630v100h98v-100h-98z" />
    <glyph glyph-name="Ohorn" unicode="&#x1a0;" horiz-adv-x="739" 
d="M72 0v724h462v-69h83v132h122v-253h-205v-534h-462zM400 591h-195v-459h195v459z" />
    <glyph glyph-name="ohorn" unicode="&#x1a1;" horiz-adv-x="737" 
d="M72 592h462v-71h80v132h122v-253h-202v-400h-462v592zM205 458v-326h198v326h-198z" />
    <glyph glyph-name="Uhorn" unicode="&#x1af;" horiz-adv-x="739" 
d="M72 0v724h132v-592h196v592h134v-69h83v132h122v-253h-205v-534h-462z" />
    <glyph glyph-name="uhorn" unicode="&#x1b0;" horiz-adv-x="737" 
d="M72 0v592h133v-460h196v460h133v-71h80v132h122v-253h-202v-400h-462z" />
    <glyph glyph-name="AEacute" unicode="&#x1fc;" horiz-adv-x="935" 
d="M400 0v264h-195v-264h-133v724h791v-133h-329v-132h326v-132h-326v-195h329v-132h-463zM400 591h-195v-195h195v195zM384 773l44 149h125l-81 -149h-88z" />
    <glyph glyph-name="aeacute" unicode="&#x1fd;" horiz-adv-x="937" 
d="M72 0v395h328v64h-328v131h793v-391h-329v-67h329v-132h-793zM400 264h-195v-132h195v132zM731 459h-195v-132h195v132zM385 641l44 149h125l-81 -149h-88z" />
    <glyph glyph-name="Oslashacute" unicode="&#x1fe;" 
d="M228 -132v132h-156v724h156v130h133v-130h173v-724h-173v-132h-133zM400 591h-195v-459h195v459zM252 896l44 149h125l-81 -149h-88z" />
    <glyph glyph-name="oslashacute" unicode="&#x1ff;" 
d="M72 591h162v130h133v-130h167v-591h-167v-132h-133v132h-162v591zM205 458v-326h198v326h-198zM257 773l44 149h125l-81 -149h-88z" />
    <glyph glyph-name="Scommaaccent" unicode="&#x218;" 
d="M72 0v132h328v185h-328v407h462v-132h-329v-144h329v-448h-462zM222 -320l30 132v132h113v-129l-30 -135h-113z" />
    <glyph glyph-name="scommaaccent" unicode="&#x219;" 
d="M72 0v132h328v132h-328v328h462v-133h-329v-64h329v-395h-462zM225 -314l30 132v132h113v-129l-30 -135h-113z" />
    <glyph glyph-name="schwa" unicode="&#x259;" 
d="M408 592l126 -130v-462h-462v393h329v15l-52 52h-277v132h336zM206 132h195v133h-195v-133z" />
    <glyph glyph-name="Alphatonos" unicode="&#x386;" 
d="M400 0v264h-195v-264h-133v724h462v-724h-134zM400 592h-195v-196h195v196zM-153 577l44 149h125l-81 -149h-88z" />
    <glyph glyph-name="Epsilontonos" unicode="&#x388;" 
d="M72 0v724h462v-133h-330v-143h317v-129h-317v-187h332v-132h-464zM-141 577l44 149h125l-81 -149h-88z" />
    <glyph glyph-name="Etatonos" unicode="&#x389;" 
d="M400 0v322h-196v-322h-132v724h132v-276h196v276h134v-724h-134zM-139 576l44 149h125l-81 -149h-88z" />
    <glyph glyph-name="Iotatonos" unicode="&#x38a;" horiz-adv-x="276" 
d="M72 0v724h132v-724h-132zM-152 575l44 149h125l-81 -149h-88z" />
    <glyph glyph-name="Omicrontonos" unicode="&#x38c;" 
d="M72 0v724h462v-724h-462zM400 591h-195v-459h195v459zM-134 577l44 149h125l-81 -149h-88z" />
    <glyph glyph-name="Upsilontonos" unicode="&#x38e;" 
d="M72 0v132h330v131h-330v461h133v-330h197v330h132v-724h-462zM-152 577l44 149h125l-81 -149h-88z" />
    <glyph glyph-name="Omegatonos" unicode="&#x38f;" 
d="M73 0v132h165v63h-166v529h462v-529h-166v-63h166v-132h-461zM400 591h-195v-264h195v264zM-135 577l44 149h125l-81 -149h-88z" />
    <glyph glyph-name="iotadieresistonos" unicode="&#x390;" horiz-adv-x="352" 
d="M94 0v592h133v-592h-133zM274 648v100h98v-100h-98zM-20 648v100h98v-100h-98zM95 631l44 149h125l-81 -149h-88z" />
    <glyph glyph-name="Iotadieresis" unicode="&#x3aa;" horiz-adv-x="276" 
d="M72 0v724h132v-724h-132zM185 775v100h98v-100h-98zM-2 775v100h98v-100h-98z" />
    <glyph glyph-name="Upsilondieresis" unicode="&#x3ab;" 
d="M72 0v132h330v131h-330v461h133v-330h197v330h132v-724h-462zM344 775v100h98v-100h-98zM157 775v100h98v-100h-98z" />
    <glyph glyph-name="alphatonos" unicode="&#x3ac;" 
d="M402 459h-198v-327h198v327zM600 132v-132h-528v592h462v-460h66zM255 629l44 149h125l-81 -149h-88z" />
    <glyph glyph-name="epsilontonos" unicode="&#x3ad;" 
d="M72 0v592h462v-133h-329v-101h326v-131h-326v-95h329v-132h-462zM249 631l44 149h125l-81 -149h-88z" />
    <glyph glyph-name="etatonos" unicode="&#x3ae;" 
d="M534 0h-134v383l-77 76h-119v-459h-132v592h304l158 -148v-444zM231 628l44 149h125l-81 -149h-88z" />
    <glyph glyph-name="iotatonos" unicode="&#x3af;" horiz-adv-x="277" 
d="M72 0v592h133v-592h-133zM94 632l44 149h125l-81 -149h-88z" />
    <glyph glyph-name="upsilondieresistonos" unicode="&#x3b0;" 
d="M72 0v592h133v-460h196v460h133v-592h-462zM398 644v100h98v-100h-98zM104 644v100h98v-100h-98zM219 627l44 149h125l-81 -149h-88z" />
    <glyph glyph-name="iotadieresis" unicode="&#x3ca;" horiz-adv-x="277" 
d="M72 0v592h133v-592h-133zM186 630v100h98v-100h-98zM-1 630v100h98v-100h-98z" />
    <glyph glyph-name="upsilondieresis" unicode="&#x3cb;" 
d="M72 0v592h133v-460h196v460h133v-592h-462zM349 631v100h98v-100h-98zM162 631v100h98v-100h-98z" />
    <glyph glyph-name="omicrontonos" unicode="&#x3cc;" 
d="M72 592h462v-592h-462v592zM205 458v-326h198v326h-198zM259 629l44 149h125l-81 -149h-88z" />
    <glyph glyph-name="upsilontonos" unicode="&#x3cd;" 
d="M72 0v592h133v-460h196v460h133v-592h-462zM254 630l44 149h125l-81 -149h-88z" />
    <glyph glyph-name="omegatonos" unicode="&#x3ce;" horiz-adv-x="802" 
d="M72 0v592h133v-460h131v393h132v-393h131v460h131v-592h-658zM361 631l44 149h125l-81 -149h-88z" />
    <glyph glyph-name="Wgrave" unicode="&#x1e80;" horiz-adv-x="738" 
d="M534 0l-164 285l-166 -285h-132v724h132v-459l143 249h44l143 -249v459h132v-724h-132zM343 774l-81 149h125l44 -149h-88z" />
    <glyph glyph-name="wgrave" unicode="&#x1e81;" horiz-adv-x="802" 
d="M72 0v592h133v-460h131v460h132v-460h131v460h131v-592h-658zM362 628l-81 149h125l44 -149h-88z" />
    <glyph glyph-name="Wacute" unicode="&#x1e82;" horiz-adv-x="738" 
d="M534 0l-164 285l-166 -285h-132v724h132v-459l143 249h44l143 -249v459h132v-724h-132zM324 773l44 149h125l-81 -149h-88z" />
    <glyph glyph-name="wacute" unicode="&#x1e83;" horiz-adv-x="802" 
d="M72 0v592h133v-460h131v460h132v-460h131v460h131v-592h-658zM361 631l44 149h125l-81 -149h-88z" />
    <glyph glyph-name="Wdieresis" unicode="&#x1e84;" horiz-adv-x="738" 
d="M534 0l-164 285l-166 -285h-132v724h132v-459l143 249h44l143 -249v459h132v-724h-132zM415 775v100h98v-100h-98zM228 775v100h98v-100h-98z" />
    <glyph glyph-name="wdieresis" unicode="&#x1e85;" horiz-adv-x="802" 
d="M72 0v592h133v-460h131v460h132v-460h131v460h131v-592h-658zM448 630v100h98v-100h-98zM261 630v100h98v-100h-98z" />
    <glyph glyph-name="Ygrave" unicode="&#x1ef2;" 
d="M72 0v132h330v131h-330v461h133v-330h197v330h132v-724h-462zM263 774l-81 149h125l44 -149h-88z" />
    <glyph glyph-name="ygrave" unicode="&#x1ef3;" 
d="M72 -198v132h330v66h-330v592h133v-460h197v460h132v-790h-462zM265 631l-81 149h125l44 -149h-88z" />
    <glyph glyph-name="fraction" unicode="&#x2044;" horiz-adv-x="147" 
d="M6 -64h-135l326 852h136z" />
    <glyph glyph-name="fraction" unicode="&#x2215;" horiz-adv-x="147" 
d="M6 -64h-135l326 852h136z" />
    <glyph glyph-name="dong" unicode="&#x20ab;" horiz-adv-x="667" 
d="M534 199h-462v328h328v197h134v-62h133v-132h-133v-331zM400 395h-195v-64h195v64zM72 132h463l-1 -132h-462v132z" />
    <glyph glyph-name="afii61352" unicode="&#x2116;" horiz-adv-x="1006" 
d="M407 0l-203 419v-419h-132v724h132l196 -412v412h134v-724h-127zM607 724h327v-320h-327v320zM740 591v-51h59v51h-59zM607 216v105h327v-105h-327z" />
    <glyph glyph-name="published" unicode="&#x2117;" 
d="M72 724h462v-592h-462v592zM154 641v-425h298v425h-298zM281 260h-83v336h208v-209h-125v-127zM281 514v-46h45v46h-45z" />
    <glyph glyph-name="minus" unicode="&#x2212;" 
d="M72 264v131h462v-131h-462z" />
    <glyph glyph-name="approxequal" unicode="&#x2248;" horiz-adv-x="672" 
d="M165 429v-87h-93v198h87l345 -101v101h96v-208h-94zM165 199v-87h-93v198h87l345 -101v101h96v-208h-94z" />
    <glyph glyph-name="notequal" unicode="&#x2260;" horiz-adv-x="622" 
d="M283 164l-94 -164h-118l94 164h-93v123h163l45 80h-208v124h279l79 137h119l-79 -137h80v-124h-151l-46 -80h197v-123h-267z" />
    <glyph glyph-name="lessequal" unicode="&#x2264;" horiz-adv-x="562" 
d="M82 0v123h418v-123h-418zM82 443l418 164v-143l-268 -77l268 -77v-144l-418 165v112z" />
    <glyph glyph-name="greaterequal" unicode="&#x2265;" horiz-adv-x="562" 
d="M82 0v123h418v-123h-418zM500 331l-418 -165v144l268 77l-268 77v143l418 -164v-112z" />
    <glyph glyph-name="slashedzero" unicode="&#xe23f;" 
d="M72 0v724h462v-724h-462zM205 198l150 393h-150v-393zM400 486l-136 -354h136v354z" />
    <glyph glyph-name="schwacyrillic" unicode="&#x4d9;" 
d="M408 592l126 -130v-462h-462v393h329v15l-52 52h-277v132h336zM206 132h195v133h-195v-133z" />
    <glyph glyph-name="trianglebullet" unicode="&#x2023;" horiz-adv-x="399" 
d="M71 106v375l281 -183z" />
    </font>
</defs>
</svg>
